<?xml version="1.0" standalone="no"?>
<!DOCTYPE svg PUBLIC "-//W3C//DTD SVG 1.1//EN" "http://www.w3.org/Graphics/SVG/1.1/DTD/svg11.dtd" >
<svg xmlns="http://www.w3.org/2000/svg">
<metadata>Generated by IcoMoon</metadata>
<defs>
<font id="icomoon" horiz-adv-x="1024">
<font-face units-per-em="1024" ascent="960" descent="-64" />
<missing-glyph horiz-adv-x="1024" />
<glyph unicode="&#x20;" horiz-adv-x="512" d="" />
<glyph unicode="&#xe900;" glyph-name="burgers" d="M414.485 780.464c-3.895-8.998-22.108-9.686-40.658-1.528s-30.384 22.092-26.456 31.089c3.895 8.998 22.092 9.686 40.658 1.528 18.55-8.175 30.418-22.092 26.456-31.089zM711.881 705.695c-3.911-9.015-22.142-9.703-40.675-1.528s-30.384 22.075-26.473 31.089c3.911 8.998 22.125 9.669 40.675 1.511 18.533-8.158 30.401-22.058 26.473-31.073zM495.935 697.822c3.928 8.998 22.125 9.686 40.658 1.528s30.418-22.092 26.506-31.089c-3.911-9.015-22.108-9.686-40.675-1.528-18.533 8.158-30.418 22.075-26.49 31.089zM711.881 780.481c-3.911-9.015-22.142-9.703-40.675-1.528-18.533 8.158-30.384 22.075-26.473 31.073 3.911 9.015 22.125 9.686 40.675 1.528 18.533-8.158 30.384-22.058 26.473-31.073zM303.020 743.063c-3.945-9.015-22.142-9.686-40.658-1.528-18.55 8.158-30.435 22.075-26.49 31.089 3.878 8.998 22.108 9.686 40.675 1.511 18.499-8.158 30.367-22.058 26.473-31.073zM573.205 741.267c-18.852-7.437-36.982-6.043-40.574 3.106-3.576 9.149 8.83 22.612 27.648 30.032 18.852 7.42 37.032 6.026 40.574-3.122 3.592-9.149-8.78-22.595-27.648-30.015zM563.704 846.101c3.559-9.166-8.83-22.612-27.665-30.049-18.852-7.437-37.015-6.026-40.574 3.139-3.592 9.132 8.796 22.578 27.648 30.015 18.852 7.42 37.015 6.026 40.591-3.106zM424.524 703.882c-18.818-7.437-36.998-6.043-40.574 3.106-3.559 9.166 8.83 22.595 27.665 30.049 18.835 7.437 36.998 6.026 40.574-3.122 3.576-9.182-8.813-22.612-27.665-30.032zM936.91 507.459c7.806 20.346 11.969 42.84 11.969 67.55 0 175.272-196.625 317.843-438.322 317.843s-438.322-142.605-438.322-317.843c0-26.355 5.002-49.991 13.9-71.411-26.104-22.729-52.56-54.138-52.56-88.165 0-28.538 8.746-50.445 26.171-65.1 5.775-4.902 18.432-12.003 18.432-12.003 1.679-6.446 4.096-12.204 6.429-18.096-4.751-14.823-12.355-61.121-12.355-81.752 0-192.73 226.254-208.896 438.322-208.896s438.322 16.166 438.322 208.896c0 28.068-5.422 52.493-15.645 73.208 9.804 21.84 15.645 46.785 15.645 76.347 0 2.803-0.151 5.456-0.235 8.192 7.269 6.664 12.557 14.974 15.075 24.979 7.202 28.991-8.914 63.203-26.825 86.251zM510.556 855.468c107.772 0 205.522-30.032 277.655-78.512-15.226 4.516-28.773 3.206-32.029-4.381-3.911-9.015 7.974-22.914 26.506-31.106 18.533-8.175 36.763-7.487 40.691 1.528 0.923 2.098 0.823 4.516 0.134 7.017 55.044-48.044 88.249-108.88 88.249-175.104 0-28.79-6.026-52.711-18.516-73.191-1.511-2.518-7.269-10.71-9.098-12.976-60.802-75.188-222.913-85.328-373.559-85.328-159.828 0-315.577 10.727-374.918 87.393-3.962 5.12-7.554 10.391-10.643 16.031-0.218 0.403-0.353 0.873-0.588 1.276-10.022 19.036-15.007 41.094-15.007 66.845-0.017 154.691 179.939 280.509 401.123 280.509zM510.556 66.988c-240.825 0-401.139 29.176-401.139 171.512 0 12.624 1.175 24.039 3.576 34.363 75.088-85.143 241.563-93.704 397.581-93.704 157.746 0 323.181 9.048 397.648 92.949 2.249-10.156 3.525-21.235 3.525-33.607-0.017-142.336-160.348-171.512-401.19-171.512zM119.842 331.818c10.71-0.034 22.041 0.671 34.615 2.837 31.475 5.456 56.79-10.995 88.887-31.895 28.655-18.65 61.188-39.785 103.474-46.063 11.197-1.679 21.319-2.401 30.653-2.401 30.955 0 53.013 8.024 76.028 16.418 26.154 9.535 55.766 20.346 107.621 23.183 50.008 2.686 82.39-5.17 113.647-12.758 38.442-9.384 74.819-18.247 133.959-5.556 61.591 13.111 83.565 42.807 96.743 68.625-31.207-104.566-181.231-127.731-394.878-127.731-179.183 0.067-349.050 14.605-390.748 115.343zM927.694 430.256c-0.873-3.357-2.602-7.218-9.367-10.122-23.015-9.938-32.13-29.629-40.205-46.97-11.734-25.466-22.847-49.421-77.119-61.020-51.015-10.878-81.819-3.408-117.508 5.338-32.197 7.856-68.692 16.904-124.391 13.732-57.31-3.089-91.102-15.444-118.297-25.348-28.622-10.475-49.32-17.979-88.618-12.221-34.279 5.12-61.927 23.099-88.685 40.54-34.212 22.327-69.481 45.442-115.46 37.317-30.149-5.204-52.409-2.686-64.361 7.453-8.578 7.202-12.943 19.506-12.943 36.495 0 14.756 12.775 34.346 34.044 54.322 0.52-0.688 1.158-1.276 1.695-1.964 0.554-0.705 0.923-1.528 1.477-2.233 0.353-0.453 0.906-0.604 1.276-0.957 70.757-86.201 234.345-98.505 401.358-98.505 167.382 0 331.961 12.019 402.365 99.127 1.612 1.93 2.652 4.146 3.341 6.446 9.283-15.629 13.883-31.358 11.398-41.43z" />
<glyph unicode="&#xe902;" glyph-name="drinks" d="M794.221 725.521h-261.657l28.118 124.777 182.238 59.023c9.115 2.954 14.135 12.758 11.146 21.89-2.921 9.098-12.641 14.051-21.89 11.18l-191.589-62.078c-5.825-1.897-10.206-6.732-11.6-12.691l-32.063-142.101h-261.305c-9.569 0-17.391-7.772-17.391-17.358v-154.691c0-9.619 7.823-17.408 17.391-17.408h12.288l94.762-544.147c1.427-8.293 8.645-14.403 17.055-14.403h310.322c8.444 0 15.662 6.11 17.106 14.403l94.728 544.147h12.338c9.552 0 17.341 7.806 17.341 17.408v154.691c0 9.585-7.789 17.358-17.341 17.358zM252.962 690.789h523.868v-119.942h-523.868v119.942zM655.394 12.296h-281.012l-91.186 523.784h463.402l-91.203-523.784z" />
<glyph unicode="&#xe903;" glyph-name="healthy" d="M940.284-2.996v0c-19.641 0-36.965 9.501-38.862 10.609-6.48 4.314-523.667 353.011-621.031 424.994-26.557 19.641-40.725 44.62-42.051 74.248-3.307 72.822 76.145 147.523 85.815 156.319 8.595 9.451 80.46 85.915 151.737 85.915 31.173 0 58.418-14.588 78.831-42.152 72.016-97.33 420.679-614.585 424.221-619.789 10.358-18.079 20.346-52.761-2.871-75.961-9.283-9.283-21.672-14.185-35.79-14.185zM475.891 709.943c-47.289 0-105.036-53.164-123.266-73.644-0.487-0.554-1.041-1.091-1.595-1.595-21.252-18.969-75.81-78.613-73.61-126.103 0.823-17.509 9.384-32.063 26.221-44.485 96.692-71.479 613.175-419.739 618.362-423.231 1.427-0.705 10.391-4.7 18.264-4.7v0c4.801 0 6.849 1.444 8.125 2.753 6.631 6.631-0.638 23.821-2.82 27.715-2.686 3.844-350.879 520.393-422.358 617.019-13.060 17.677-28.571 26.271-47.322 26.271zM326.119 641.654c-5.674 0-11.281 2.451-15.142 7.151-97.112 118.247-246.297 173.962-247.774 174.5-10.173 3.71-15.36 14.991-11.65 25.13 3.743 10.173 15.041 15.36 25.113 11.65 5.154-1.897 103.273-38.526 195.416-116.669-8.662 38.727-9.434 83.783 14.135 123.132 5.59 9.3 17.609 12.305 26.893 6.715 9.3-5.573 12.288-17.593 6.748-26.876-41.984-69.867 22.175-173.727 22.83-174.768 5.473-8.746 3.223-20.262-5.154-26.288-3.441-2.451-7.437-3.676-11.415-3.676zM313.596 629.164c-3.777 0-7.571 1.058-10.911 3.341-116.467 78.479-195.937 18.331-196.726 17.71-8.545-6.648-20.816-5.154-27.497 3.374-6.648 8.528-5.137 20.816 3.357 27.48 4.13 3.24 102.954 78.093 242.722-16.082 8.981-6.060 11.365-18.214 5.288-27.195-3.777-5.59-9.938-8.628-16.233-8.628zM447.958 483.135c-3.341 0-6.748 0.856-9.871 2.669-9.317 5.473-12.439 17.425-7.034 26.758 2.082 3.508 51.334 86.637 135.504 117.089 10.19 3.66 21.386-1.595 25.080-11.751 3.676-10.173-1.595-21.403-11.751-25.080-70.639-25.533-114.587-99.278-115.024-100.033-3.626-6.144-10.19-9.652-16.904-9.652zM549.535 399.855c-3.341 0-6.782 0.856-9.871 2.669-9.334 5.473-12.456 17.442-7 26.758 1.746 3.022 43.797 74.030 115.897 100.067 10.173 3.643 21.42-1.595 25.063-11.784 3.71-10.156-1.561-21.386-11.751-25.063-58.502-21.151-95.047-82.39-95.417-83.011-3.66-6.178-10.19-9.636-16.921-9.636zM661.722 306.033c-2.954 0-5.959 0.671-8.78 2.082-9.602 4.885-13.547 16.585-8.696 26.221 1.293 2.652 32.986 64.613 97.7 81.181 10.458 2.686 21.151-3.643 23.837-14.118s-3.66-21.151-14.118-23.837c-47.138-12.053-72.217-60.332-72.435-60.802-3.441-6.815-10.358-10.727-17.509-10.727z" />
<glyph unicode="&#xe904;" glyph-name="international" d="M471.728 126.179c-213.831 0-387.794 173.962-387.794 387.794s173.962 387.794 387.794 387.794 387.794-173.962 387.794-387.794-173.962-387.794-387.794-387.794zM471.728 868.193c-195.315 0-354.22-158.905-354.22-354.22s158.905-354.22 354.22-354.22 354.22 158.905 354.22 354.22-158.905 354.22-354.22 354.22zM471.476 48.271c-76.682 0-152.593 19.12-221.855 56.74-3.978 2.166-6.916 5.842-8.142 10.19s-0.655 9.031 1.612 12.943l38.744 67.148c4.633 8.024 14.89 10.811 22.931 6.144 8.041-4.633 10.794-14.907 6.161-22.931l-29.965-51.939c97.884-48.346 208.728-57.915 314.015-26.725 110.81 32.818 202.198 106.798 257.343 208.359 55.162 101.544 67.5 218.498 34.665 329.292-31.308 105.757-100.151 193.838-194.661 249.604l-33.725-53.668c-4.902-7.856-15.226-10.24-23.149-5.288-7.856 4.935-10.206 15.293-5.271 23.132l42.253 67.248c4.717 7.487 14.42 10.055 22.226 5.825 109.45-59.442 189.188-157.931 224.525-277.336 35.353-119.405 22.075-245.441-37.368-354.858-59.426-109.434-157.914-189.171-277.336-224.508-43.831-12.943-88.551-19.372-133.002-19.372zM589.639-32.609h-239.28c-9.266 0-16.787 7.504-16.787 16.787s7.521 16.787 16.787 16.787h104.767v64.227c0 9.283 7.521 16.787 16.787 16.787s16.787-7.504 16.787-16.787v-64.227h100.94c9.283 0 16.787-7.504 16.787-16.787s-7.504-16.787-16.787-16.787zM483.311 145.265c-12.154 0-22.092 5.573-27.984 15.696-17.24 29.595 3.66 61.222 20.446 86.654 9.753 14.772 21.89 33.137 19.456 41.984-1.209 4.365-7.235 8.058-12.087 10.408-64.814 31.274-59.745 100.856-48.010 133.254l8.125 26.658c2.216 11.432 11.868 33.288 47.003 33.288 24.559 0 55.027-10.559 84.505-20.765l4.482-1.544c6.211-2.149 12.238-4.062 17.962-5.875 39.936-12.657 77.656-24.626 81.467-91.791 2.535-45.492-56.807-121.101-92.261-158.602-24.509-25.919-70.471-69.363-103.105-69.363zM490.244 459.633c-12.892 0-13.698-4.029-14.487-7.923l-8.796-29.058c-1.192-3.425-22.83-66.543 30.754-92.412 16.166-7.806 26.221-18.482 29.864-31.744 6.48-23.535-8.914-46.852-23.804-69.397-12.523-18.952-25.466-38.543-19.976-50.243 9.753 0.537 38.073 16.401 78.21 58.821 47.96 50.73 84.488 109.45 83.145 133.657-2.501 44.049-19.926 49.572-58.099 61.675-5.993 1.897-12.288 3.895-18.801 6.144l-4.499 1.561c-25.583 8.863-54.591 18.919-73.51 18.919zM415.845 444.676c-8.259 0-17.123 3.257-26.305 9.686-33.792 23.636-68.39 47.843-106.295 68.642-33.423 18.314-36.209 31.408-39.768 61.86-1.377 11.768-3.089 26.406-7.437 47.087-13.312 63.253-50.461 90.045-52.039 91.153-2.568 1.813-4.667 4.381-5.892 7.286-2.283 5.439-4.801 16.552 4.079 29.914 11.885 17.895 40.037 33.020 61.457 33.020 16.871 0 28.991-9.468 31.626-24.71 0.806-4.633 3.29-18.818 50.713-21.185 11.516-0.588 34.732-4.197 61.641-8.377 30.065-4.684 67.483-10.509 81.383-10.509 5.556 0.252 14.403 5.926 20.866 10.072 12.12 7.772 25.852 16.585 41.329 16.585 8.091 0 19.993-2.552 30.72-14.689 26.188-29.562 41.48-72.637 42.118-74.467 1.729-4.902 1.074-10.341-1.763-14.705s-7.521-7.168-12.724-7.588c-2.132-0.201-54.96-5.674-89.776-62.246-17.609-28.638-42.253-42.538-75.323-42.538-8.175 0-15.595 0.789-22.159 1.477-0.772 0.084-1.528 0.168-2.283 0.235 8.276-3.022 19.708-8.024 30.569-22.125 14.386-18.734 18.818-41.967 11.012-57.814-5.002-10.055-14.605-16.065-25.751-16.065zM211.615 743.785c14.89-13.413 45.022-46.701 57.277-104.918 4.667-22.192 6.564-38.324 7.94-50.109 2.988-25.6 2.988-25.6 22.562-36.327 39.516-21.689 74.87-46.433 109.081-70.354 1.242-0.873 2.333-1.544 3.24-2.065-0.436 4.415-2.451 11.197-7.756 18.096-5.909 7.672-11.314 9.602-17.576 11.818-13.094 4.65-26.977 11.868-25.885 38.761 0.252 6.178 3.19 26.271 30.2 26.271 4.348 0 9.468-0.504 15.142-1.108 5.64-0.604 11.969-1.293 18.617-1.293 15.041 0 32.332 3.156 46.735 26.557 29.192 47.457 69.263 66.224 93.788 73.543-6.144 13.362-15.864 31.694-28.202 45.593-2.971 3.357-4.65 3.357-5.573 3.357-5.624 0-15.377-6.245-23.199-11.264-11.214-7.202-22.813-14.655-35.79-15.31l-3.206-0.084c-16.485 0-52.106 5.54-86.536 10.895-23.804 3.71-48.413 7.537-58.167 8.041-17.878 0.89-71.411 3.542-81.416 45.627-11.398-0.957-25.718-9.485-31.274-15.729zM773.556 385.217v0c-14.94 0-25.482 1.998-33.221 6.295-23.3 12.943-43.948 43.092-32.029 88.937 5.691 22.008 17.609 35.152 29.142 47.859 11.465 12.624 22.276 24.559 28.873 47.138 15.914 54.541 38.643 64.865 45.224 66.728 8.679 2.434 17.71-2.367 20.514-10.878 35.32-106.815 1.645-224.844 0.185-229.796-1.763-6.077-6.815-10.643-13.043-11.801-0.99-0.201-24.307-4.482-45.644-4.482zM808.003 591.226c-3.038-6.262-6.312-14.47-9.434-25.197-8.746-29.998-24.005-46.785-36.226-60.282-10.005-11.012-17.895-19.725-21.521-33.725-8.679-33.406 8.192-46.903 15.83-51.166 0.151-0.084 3.861-2.065 16.921-2.065 10.139 0 21.202 1.192 29.025 2.283 6.11 26.188 19.96 98.858 5.405 170.152z" />
<glyph unicode="&#xe905;" glyph-name="local" d="M220.328 294.366c-6.161-6.010-9.585-14.286-9.585-22.914s3.425-16.904 9.585-23.082c6.026-6.010 14.319-9.434 22.914-9.434 8.427 0 16.904 3.425 23.082 9.602 6.010 6.010 9.417 14.454 9.417 22.914 0 8.444-3.391 16.904-9.569 22.914-12.070 12.187-33.842 12.187-45.845 0zM243.242 482.766c-116.518 0-211.313-94.796-211.313-211.313s94.796-211.313 211.313-211.313 211.297 94.779 211.297 211.313c0 116.518-94.796 211.313-211.297 211.313zM243.242 92.655c-98.573 0-178.797 80.241-178.797 178.797s80.225 178.797 178.797 178.797 178.78-80.241 178.78-178.797c0-98.573-80.208-178.797-178.78-178.797zM854.1 213.084c-6.026-5.993-9.434-14.454-9.434-22.914 0-8.628 3.408-16.904 9.434-23.082 6.161-5.993 14.47-9.434 23.082-9.434 8.595 0 16.888 3.441 22.914 9.602 6.161 6.010 9.569 14.286 9.569 22.914 0 8.444-3.408 16.904-9.569 22.914-12.036 12.204-33.826 12.204-45.996 0zM942.198 302.609v66.359c0 57.428-40.104 97.532-97.549 97.532h-32.499v146.298c0 7.319 8.981 16.25 16.25 16.25 8.998 0 16.25 7.286 16.25 16.266 0 8.964-7.252 16.233-16.25 16.233h-65.032c-25.046 0-48.749-23.686-48.749-48.749v-146.298h-133.405l-62.061 263.789c-0.319 1.242-0.722 2.434-1.293 3.542-0.856 1.695-21.252 41.514-63.32 41.514h-308.828c-8.998 0-16.233-7.286-16.233-16.266s7.252-16.25 16.25-16.25h65.016v-195.064h-48.766c-8.998 0-16.266-7.269-16.266-16.25 0-8.964 7.269-16.266 16.266-16.266h81.265c134.446 0 243.813-109.383 243.813-243.813v-81.265c0-8.964 7.269-16.266 16.25-16.266h244.937c8.041-64.025 62.699-113.782 128.94-113.782 71.697 0 130.031 58.351 130.031 130.048 0 47.994-26.221 89.927-65.016 112.439zM747.117 612.797c0 7.319 8.964 16.25 16.25 16.25h19.54c-2.098-5.187-3.273-10.693-3.273-16.25v-146.298h-32.516v146.298zM243.242 547.764v195.064h211.297c18.734 0 30.468-17.24 33.473-22.209l59.778-254.12h-109.031c-50.075 50.176-119.254 81.265-195.517 81.265zM519.554 206.437v65.016c0 60.802-19.96 116.854-53.349 162.547h378.444c33.742 0 57.126-18.717 63.303-48.749h-63.303c-8.981 0-16.25-7.302-16.25-16.266 0-8.981 7.269-16.25 16.25-16.25h65.016v-36.797c-10.408 2.703-21.269 4.297-32.499 4.297-66.191 0-120.882-49.74-128.94-113.765l-228.671-0.034zM877.182 92.655c-53.785 0-97.549 43.747-97.549 97.532s43.747 97.532 97.549 97.532 97.532-43.747 97.532-97.532c-0.017-53.785-43.747-97.532-97.532-97.532z" />
<glyph unicode="&#xe906;" glyph-name="mexican" d="M985.692 195.978h-934.593c-4.851 0-9.468 2.098-12.657 5.775-3.19 3.66-4.633 8.528-3.962 13.329 0.554 4.029 61.004 403.49 483.916 403.49s483.362-399.461 483.916-403.49c0.671-4.801-0.772-9.669-3.962-13.329-3.19-3.676-7.806-5.775-12.657-5.775zM71.445 229.552h894.053c-16.686 77.153-100.956 355.446-447.119 355.446-165.418 0-291.471-62.934-374.65-187.073-45.492-67.903-65.016-136.158-72.284-168.372zM50.361 195.978c-0.235 0-0.487 0.017-0.739 0.017-9.25 0.403-16.434 8.226-16.048 17.492 0.201 4.616 5.372 114.638 50.126 237.299 59.996 164.461 163.085 271.242 298.135 308.778 39.164 10.895 96.81 15.78 136.561 15.78 35.706 0 90.515-4.012 126.439-12.842 334.227-82.105 358.165-532.883 358.366-537.432 0.403-9.266-6.748-17.106-16.015-17.526-9.216-0.034-17.106 6.748-17.526 16.015-0.201 4.297-23.099 430.231-332.817 506.326-28.487 7-77.186 11.885-118.448 11.885-44.334 0-96.776-5.976-127.547-14.537-301.392-83.783-323.534-510.892-323.718-515.19-0.386-9.015-7.823-16.065-16.77-16.065zM950.574 359.785c-7 6.58-68.86 64.932-82.323 87.090-1.645 2.703-3.408 5.456-5.238 8.31-13.211 20.581-31.324 48.783-18.768 82.407 7.554 20.279-11.432 46.030-28.823 66.207-9.77 11.314-37.418 18.348-72.15 18.348-20.211 0-67.534 0-94.074 28.706-9.585 10.358-16.938 19.523-23.434 27.614-23.485 29.226-30.451 38.089-89.189 33.003-14.84-1.293-27.547-6.211-42.269-11.919-15.931-6.178-33.977-13.178-58.536-17.24-17.677-2.921-71.495-11.818-137.971-11.818-40.557 0-50.226-44.871-51.939-55.481 2.619-16.619 11.382-94.997-50.361-128.151-86.301-46.365-69.733-109.702-69.565-110.323l-32.332-9.048c-8.645 30.905-1.779 101.779 86.016 148.95 45.811 24.61 32.919 94.393 32.785 95.081l-0.487 2.484 0.269 2.568c3.307 30.267 25.482 87.493 85.63 87.493 63.706 0 115.477 8.561 132.499 11.382 21.135 3.492 36.763 9.552 51.871 15.41 16.418 6.362 31.895 12.372 51.519 14.051 73.191 6.362 90.028-10.274 118.247-45.425 6.144-7.655 13.111-16.334 21.924-25.835 16.552-17.928 53.584-17.928 69.414-17.928 32.684 0 76.145-5.204 97.565-29.981 15.058-17.492 50.327-58.385 34.833-99.882-6.194-16.636 2.149-31.593 15.595-52.526 1.981-3.106 3.895-6.094 5.674-9.015 8.36-13.732 51.435-56.404 76.615-80.057l-22.998-24.475zM245.71 519.076l-28.907 17.089c3.425 5.791 85.076 141.983 199.042 159.744 112.959 17.593 262.396-88.769 268.691-93.318l-19.607-27.262c-1.427 1.041-144.636 102.904-243.913 87.393-98.22-15.293-174.55-142.37-175.305-143.645zM317.205 546.035l-19.557 27.279c197.951 141.95 379.098 94.107 386.719 92.026l-8.914-32.365c-1.712 0.487-173.946 45.257-358.249-86.939zM842.198 565.324c-40.171 52.325-143.36 17.928-144.418 17.576l-47.255-11.549-7.94 32.617 45.811 11.13c3.71 1.343 125.599 42.135 180.425-29.343l-26.624-20.43z" />
<glyph unicode="&#xe907;" glyph-name="dessert" d="M739.681 572.592c9.417 46.5 33.272 201.51-42.689 296.272-39.533 49.337-99.345 74.349-177.79 74.349-0.050 0-0.101 0-0.151 0-97.733-0.034-169.967-29.629-214.687-87.896-70.723-92.16-49.521-226.17-40.809-267.113-16.418-11.751-25.835-25.785-28.051-41.816-2.887-20.916 6.799-42.706 28.806-64.797 12.489-12.54 26.708-17.526 40.473-15.125l27.329-71.277 164.377-428.3c2.484-6.497 8.729-10.777 15.679-10.777 0.067 0 0.151 0 0.218 0 7.034 0.101 13.262 4.549 15.612 11.18l162.917 459.726c0 0.017 0 0.050 0.017 0.084l11.298 31.845c0.050 0 0.101-0.017 0.151-0.017 27.547 0 47.574 14.454 59.644 43.126 15.41 36.579-10.039 60.282-22.343 70.538zM350.863 455c1.225-0.571 2.451-1.125 3.71-1.662 1.88-0.789 3.811-1.494 5.791-2.182 1.276-0.436 2.535-0.89 3.844-1.293 2.216-0.655 4.532-1.158 6.866-1.645 1.192-0.252 2.333-0.554 3.542-0.755 3.576-0.588 7.252-0.99 11.063-1.074 0.017 0 0.050 0 0.067 0l4.297-0.050c2.451 0 4.549 0.218 6.832 0.319 1.779 0.084 3.643 0.101 5.321 0.252 3.173 0.285 6.026 0.705 8.813 1.175 1.108 0.185 2.333 0.302 3.391 0.52 3.122 0.621 5.892 1.377 8.511 2.166 0.52 0.168 1.158 0.285 1.662 0.453 3.072 1.007 5.842 2.098 8.259 3.257 1.276-1.326 2.568-2.401 3.861-3.576 1.007-0.923 1.998-1.947 3.005-2.787 1.276-1.058 2.552-1.93 3.827-2.871 1.041-0.755 2.065-1.628 3.106-2.3 0.067-0.034 0.134-0.101 0.185-0.134l-64.495-44.787-20.732 14.101-17.844 46.516c0.638-0.353 1.36-0.671 2.014-1.024 1.645-0.906 3.341-1.779 5.103-2.619zM412.017 377.73l77.404 53.735c0.571 0.034 1.142 0.218 1.729 0.269 2.854 0.285 5.708 0.739 8.595 1.36 0.99 0.218 1.981 0.353 2.971 0.621 3.895 0.99 7.789 2.199 11.65 3.794l71.16-49.387-91.153-66.493-82.356 56.102zM441.428 204.053l-11.197 29.226 64.814 47.255 87.258-59.476-5.976-16.871-66.996-53.903-67.903 53.768zM660.984 443.132l-46.751-34.061-36.109 25.063c28.773 1.393 54.943 21.806 68.574 36.78 3.995-0.906 8.847-2.384 13.597-3.811 2.669-0.806 5.439-1.645 8.31-2.468l-7.621-21.504zM402.986 343.283l62.598-42.655-47.809-34.866-35.051 91.321 20.262-13.799zM465.047 142.529l17.442-13.799-9.283-7.453-8.158 21.252zM511.53 21.395l-25.684 66.929 23.636 19.020 25.399-20.077-23.351-65.872zM546.732 120.689l-10.408 8.242 18.633 14.991-8.226-23.233zM593.903 253.809l-70.052 47.742 90.884 66.308 15.729-10.911-36.562-103.139zM731.086 515.097c-9.149-21.722-21.286-24.408-37.72-21.823-0.017 0-0.050 0-0.084 0-7.621 1.225-15.578 3.626-23.267 5.943-10.492 3.173-20.379 6.161-30.132 6.161h-0.017c-5.019-0.067-9.753-2.384-12.876-6.295-7.050-8.746-30.132-31.475-51.922-31.475-9.787 0-18.734 4.667-27.346 14.286-3.055 3.408-7.386 5.389-11.952 5.556-4.6-0.084-9.031-1.578-12.305-4.767-0.067-0.050-6.228-5.993-15.478-11.079-0.017 0-0.034-0.017-0.050-0.017-5.607-3.072-14.286-6.715-23.921-6.715-0.017 0-0.034 0-0.067 0-12.103 0.101-22.864 6.815-32.852 20.077-0.52 0.688-1.058 1.175-1.578 1.914-1.763 2.501-3.878 4.885-6.312 6.547-2.434 1.679-5.17 2.669-8.158 2.333-1.511-0.168-2.921-0.42-4.197-0.806-0.722-0.218-1.309-0.571-1.947-0.856-0.504-0.235-1.074-0.386-1.528-0.671-2.082-1.309-3.693-3.223-4.868-6.043 0 0-0.084-0.084-0.118-0.101-0.118-0.118-0.52-0.47-1.377-1.041-0.034-0.017-0.050-0.034-0.084-0.067-0.336-0.218-0.839-0.487-1.293-0.722-0.302-0.168-0.554-0.336-0.906-0.504-0.436-0.218-1.058-0.453-1.595-0.705-0.554-0.235-1.058-0.47-1.729-0.705-0.554-0.201-1.276-0.403-1.914-0.604-0.856-0.269-1.712-0.537-2.719-0.789-0.688-0.168-1.494-0.319-2.249-0.47-1.192-0.252-2.401-0.504-3.76-0.705-0.856-0.134-1.83-0.218-2.77-0.336-1.494-0.168-3.038-0.336-4.734-0.453-1.142-0.067-2.417-0.084-3.643-0.134-2.233-0.067-4.465-0.151-7.017-0.084-29.108 0.739-49.622 28.101-49.773 28.319-3.223 4.465-8.41 6.815-14 6.866v0 0c-0.302 0-0.588-0.101-0.873-0.134-3.811-0.285-7.403-1.813-10.173-4.381-0.017-0.017-0.034-0.034-0.050-0.050-0.974-0.906-1.847-1.93-2.585-3.055-0.017-0.017-1.779-2.585-4.532-4.969-0.252-0.218-0.453-0.436-0.722-0.638v0c0 0 0-0.017-0.017-0.017v0c-3.257-2.535-6.967-5.355-15.746 3.441-13.849 13.816-20.715 26.775-19.372 36.461 1.142 8.326 8.578 16.401 22.075 24.005 6.681 3.76 9.971 11.566 7.991 18.969-0.42 1.544-40.44 155.497 32.164 250.108 38.056 49.572 101.326 74.735 188.080 74.769 0.034 0 0.084 0 0.134 0 67.735 0 118.734-20.782 151.586-61.759 71.982-89.827 39.567-252.475 34.631-275.003-4.549-11.868 6.48-20.916 10.861-24.509 14.218-11.65 20.396-19.993 14.806-33.272z" />
<glyph unicode="&#xe908;" glyph-name="sandwiches" d="M511.983 724.984c-288.415 0-497.765-127.11-497.765-302.281 0-11.499 4.381-21.823 12.708-29.948 7.185-6.967 17.475-12.221 30.619-16.233-2.535-12.876-3.307-31.408 5.154-48.329-3.055-2.887-5.926-6.513-8.393-11.146-0.353-0.571-0.806-1.209-1.343-2.014-4.851-7-17.727-25.667-6.698-46.634 15.729-30.015 81.030-69.884 464.997-69.884h1.746c383.933 0 449.284 39.869 465.014 69.884 10.995 20.984-1.88 39.634-6.732 46.634-0.52 0.789-1.007 1.444-1.259 1.847-6.547 12.288-16.233 23.3-21.168 28.538 3.945 11.046 4.935 20.547 5.103 26.003 34.984 7.923 53.987 22.981 55.8 50.193 0.034 0.336 0.034 0.705 0.034 1.041-0.050 175.222-209.416 302.332-497.815 302.332zM159.14 365.409c0.252-0.201 0.42-0.52 0.755-0.705l69.028-41.598c-39.449 0.386-73.308 0.638-89.155 0.638-14.269 0-32.248 2.082-42.689 11.012-0.168 0.118-0.336 0.218-0.453 0.336-1.561 1.377-2.954 2.887-4.113 4.616-5.943 8.78-5.456 21.017-3.71 30.216 19.574-2.703 43.042-4.046 70.337-4.516zM713.896 301.098l-97.985 68.558c38.643-0.839 75.138-1.981 108.98-3.106 34.077-1.125 65.15-2.098 93.369-2.602l-104.364-62.85zM562.226 370.579c1.125-2.199 2.669-4.23 4.851-5.758l67.349-47.138-16.35 0.218c-71.68 0.89-151.233 1.88-220.378 2.787l69.38 48.564c0.537 0.403 0.856 0.99 1.36 1.427 15.041 0.151 30.183 0.269 45.761 0.269 16.434-0.017 32.248-0.185 48.027-0.369zM320.176 305.479l-99.664 60.030c27.866 0.42 58.351 1.192 91.875 2.082 31.156 0.806 64.613 1.662 99.781 2.333l-91.992-64.445zM941.711 301.87c0.705-1.293 1.813-3.022 3.19-5.002 5.154-7.453 6.262-10.643 4.684-13.597-6.48-12.372-57.126-52.744-436.66-52.744h-1.712c-379.501 0-430.198 40.356-436.711 52.744-1.544 2.954-0.42 6.127 4.751 13.597 1.36 1.981 2.468 3.71 3.156 5.002 0.705 1.309 1.309 2.082 1.88 2.686 13.883-8.477 32.348-12.808 55.43-12.808 22.41 0 80.728-0.487 140.187-1.225 0.118 0 0.151 0 0.235 0 0.739 0 1.393 0.319 2.082 0.42l30.334-18.264c2.518-1.528 5.372-2.3 8.242-2.3 3.24 0 6.413 0.974 9.149 2.887l23.451 16.401c0.739-0.118 1.393-0.453 2.182-0.47 77.236-1.041 175.524-2.283 262.077-3.324l63.253-0.789 23.166-16.216c2.736-1.914 5.943-2.887 9.166-2.887 2.837 0 5.708 0.772 8.242 2.3l25.55 15.377c40.087-0.42 69.598-0.671 88.098-0.671 43.092 0 75.474 11.281 96.206 33.54 0.034 0.034 0.050 0.118 0.101 0.168 3.525-4.163 7.42-9.384 10.274-14.823zM907.919 338.365c-14.42-15.478-38.929-23.334-72.788-23.334-9.233 0-21.202 0.050-35.806 0.168l74.853 45.123c1.645 0.974 2.904 2.283 3.995 3.66 15.78 0.386 30.233 1.158 43.243 2.451-1.108-7.168-4.314-18.214-13.497-28.068zM725.915 398.563c-62.414 2.048-133.053 4.348-211.75 4.348-74.265 0-142.454-1.763-202.634-3.357-128.369-3.374-239.331-6.262-262.295 16.132-2.199 2.132-3.022 4.096-3.022 7 0 100.57 85.311 184.975 218.397 231.491l56.589-99.832c2.954-5.187 8.36-8.108 13.95-8.108 2.669 0 5.372 0.671 7.873 2.082 7.655 4.348 10.374 14.135 6.010 21.806l-53.248 93.923c50.797 14.739 107.436 24.307 168.255 27.614l59.375-104.817c2.954-5.204 8.36-8.108 13.933-8.108 2.669 0 5.372 0.671 7.873 2.082 7.705 4.348 10.391 14.118 6.026 21.806l-51.066 90.162c3.911 0.050 7.839 0.168 11.784 0.168 61.608 0 119.623-6.329 172.519-17.861 0.235-0.504 0.235-1.074 0.504-1.544l61.423-108.359c2.938-5.17 8.343-8.108 13.916-8.108 2.652 0 5.355 0.688 7.873 2.082 7.705 4.348 10.391 14.135 6.043 21.806l-47.238 83.414c151.149-43.512 250.393-132.902 250.762-241.093-3.29-32.869-118.482-29.108-251.854-24.727z" />
<glyph unicode="&#xe909;" glyph-name="american" d="M718.512-30.426h-436.258c-8.108 0-15.058 5.808-16.518 13.765l-96.944 531.338c-0.89 4.902 0.436 9.938 3.626 13.765s7.923 6.026 12.892 6.026h82.306c7.739 0 14.47-5.288 16.3-12.792 9.233-37.737 67.114-135.655 222.040-135.655 144.518 0 223.87 138.475 224.659 139.885 2.971 5.288 8.578 8.578 14.638 8.578h81.383c5.036 0 9.82-2.266 12.993-6.161s4.465-9.031 3.441-13.967l-108.124-531.338c-1.578-7.823-8.461-13.446-16.434-13.446zM296.255 3.148h408.526l101.309 497.765h-51.401c-21.168-33.104-105.237-148.446-248.731-148.446-161.607 0-231.542 97.549-250.628 148.446h-49.891l90.817-497.765zM648.578 598.78c-1.225 0-2.484 0.134-3.76 0.42-9.031 2.065-14.689 11.063-12.624 20.094l60.45 265.098-46.651 13.48-45.123-174.030c-2.317-8.964-11.482-14.386-20.463-12.036-8.981 2.317-14.353 11.482-12.036 20.463l49.454 190.733c1.125 4.381 3.995 8.125 7.94 10.374s8.612 2.787 12.976 1.544l78.462-22.679c8.561-2.468 13.681-11.18 11.7-19.859l-63.992-280.542c-1.763-7.789-8.679-13.060-16.334-13.060zM443.039 408.282c-8.696 0-16.048 6.681-16.72 15.494l-34.262 444.718c-0.353 4.482 1.125 8.914 4.079 12.305s7.134 5.456 11.633 5.741l87.51 5.405c4.532 0.386 8.964-1.276 12.322-4.331s5.338-7.336 5.489-11.868l9.686-286.015c0.319-9.266-6.95-17.039-16.216-17.341-9.098-0.487-17.022 6.95-17.341 16.216l-9.115 268.758-53.265-3.29 32.953-427.73c0.705-9.233-6.211-17.324-15.444-18.029-0.436-0.017-0.873-0.034-1.309-0.034zM343.309 715.952c-6.983 0-13.48 4.381-15.88 11.348l-54.641 159.14c-1.494 4.348-1.142 9.115 0.99 13.194 2.115 4.079 5.825 7.101 10.24 8.393l84.455 24.375c4.297 1.209 8.914 0.705 12.792-1.444 3.895-2.166 6.782-5.791 8.007-10.072l42.605-149.101c2.552-8.914-2.619-18.197-11.533-20.749-8.897-2.568-18.197 2.619-20.749 11.533l-37.989 132.919-51.334-14.823 48.917-142.454c3.005-8.763-1.662-18.314-10.425-21.336-1.796-0.621-3.643-0.923-5.456-0.923zM535.132 354.245c-1.914 0-3.861 0.336-5.758 1.024-8.192 2.988-12.724 11.751-10.458 20.161l89.273 329.124-47.591 12.422-89.743-341.781c-1.947-7.369-8.612-12.523-16.233-12.523-0.017 0-0.050 0-0.067 0-7.655 0.034-14.319 5.238-16.199 12.657l-86.822 342.1-50.965-11.684 74.836-295.483c2.283-8.981-3.156-18.113-12.154-20.396-9.031-2.266-18.113 3.173-20.396 12.17l-79.049 312.119c-1.108 4.381-0.403 9.031 1.947 12.876 2.35 3.861 6.161 6.597 10.576 7.604l83.699 19.187c8.847 1.998 17.777-3.391 20.010-12.238l74.853-294.979 77.488 295.113c2.367 8.964 11.549 14.302 20.48 11.986l80.208-20.933c4.331-1.125 8.041-3.945 10.29-7.823s2.854-8.494 1.679-12.808l-42.269-155.866 87.544 188.265c1.914 4.113 5.405 7.269 9.686 8.763s8.964 1.192 13.043-0.839l73.241-36.629c8.259-4.13 11.633-14.168 7.537-22.444l-64.495-130.719 88.282 118.515c2.938 3.945 7.453 6.413 12.372 6.732 4.784 0.42 9.703-1.528 13.144-5.086l52.325-54.054c6.060-6.262 6.312-16.132 0.571-22.713l-83.699-95.903c-6.077-7-16.686-7.705-23.67-1.612s-7.705 16.703-1.612 23.686l73.56 84.27-27.866 28.79-186.469-250.36c-5.204-6.95-14.856-8.813-22.226-4.281-7.403 4.532-10.139 13.95-6.295 21.739l138.609 280.878-42.874 21.437-163.118-350.762c-2.837-6.060-8.863-9.703-15.226-9.703zM351.333 413.268c-5.187 0-10.29 2.384-13.581 6.883l-201.728 276.161c-2.837 3.878-3.861 8.78-2.837 13.48s4.012 8.729 8.209 11.079l75.306 42.102c8.041 4.465 18.113 1.695 22.713-6.228l83.196-143.276c4.65-8.024 1.93-18.281-6.094-22.948-8.007-4.633-18.298-1.93-22.948 6.094l-74.903 128.99-44.351-24.794 190.565-260.868c5.473-7.487 3.827-17.996-3.66-23.451-2.988-2.182-6.463-3.223-9.887-3.223zM199.865 500.946c-4.818 0-9.585 2.065-12.909 6.043l-59.274 71.244c-5.674 6.815-5.070 16.871 1.393 22.964l52.123 49.118c6.748 6.345 17.391 6.060 23.737-0.705 6.345-6.748 6.043-17.374-0.705-23.737l-40.641-38.291 49.169-59.107c5.943-7.134 4.952-17.71-2.166-23.636-3.139-2.636-6.933-3.895-10.727-3.895z" />
<glyph unicode="&#xe90a;" glyph-name="asian" d="M254.808 460.825c-8.108 0-15.242 5.875-16.552 14.135-1.46 9.149 4.767 17.761 13.916 19.238l705.2 113.127c9.098 1.511 17.761-4.751 19.238-13.916 1.477-9.149-4.751-17.761-13.916-19.238l-705.2-113.127c-0.906-0.151-1.813-0.218-2.686-0.218zM274.231 519.126c-6.278 0-12.288 3.525-15.175 9.585-3.978 8.377-0.42 18.382 7.957 22.377l645.086 306.562c8.377 3.995 18.415 0.42 22.377-7.957 3.978-8.377 0.403-18.382-7.957-22.377l-645.086-306.579c-2.333-1.091-4.784-1.612-7.202-1.612zM469.932 292.016h-98.069c-9.266 0-16.787 7.504-16.787 16.787s7.521 16.787 16.787 16.787h98.069c9.266 0 16.787-7.504 16.787-16.787s-7.521-16.787-16.787-16.787zM560.044 292.016h-90.112c-9.266 0-16.787 7.504-16.787 16.787s7.521 16.787 16.787 16.787h90.112c9.283 0 16.787-7.504 16.787-16.787s-7.504-16.787-16.787-16.787zM643.341 27.858h-294.61c-1.662 0-3.324 0.252-4.902 0.739-317.977 97.162-326.807 272.3-327.042 279.72-0.134 4.532 1.578 8.931 4.734 12.187 3.173 3.257 7.504 5.086 12.053 5.086h338.289c9.266 0 16.787-7.504 16.787-16.787s-7.521-16.787-16.787-16.787h-318.33c4.23-16.183 14.034-42.303 36.595-72.15 35.068-46.416 108.829-111.465 261.12-158.435h289.574c235.067 72.486 286.586 187.291 297.799 230.585h-378.578c-9.283 0-16.787 7.504-16.787 16.787s7.504 16.787 16.787 16.787h398.437c4.549 0 8.88-1.83 12.053-5.103 3.156-3.24 4.868-7.655 4.734-12.187-0.235-7.403-9.048-182.557-327.025-279.72-1.595-0.487-3.24-0.722-4.902-0.722zM395.247 292.016c-7.487 0-14.319 5.053-16.25 12.641-1.796 7.067-4.667 15.394-7.823 24.66-12.943 38.006-30.686 90.028-12.322 139.667 31.106 84.086 23.149 143.578 22.696 146.801-1.393 8.041 3.24 16.115 11.23 18.785 8.83 2.954 18.314-1.813 21.235-10.609 2.367-7.084 10.223-74.97-23.67-166.61-14.235-38.459 1.276-83.951 12.607-117.189 3.357-9.837 6.513-19.137 8.578-27.195 2.3-8.981-3.139-18.113-12.12-20.413-1.393-0.369-2.787-0.537-4.163-0.537zM469.932 292.621c-0.084 0-0.185 0-0.285 0-8.947 0.151-16.216 6.698-16.485 15.662-0.118 3.844 0.604 7.504 1.494 12.17 2.199 11.298 5.875 30.216-4.046 56.723-33.708 90.196-6.899 193.519-3.441 200.452 4.146 8.293 14.202 11.684 22.528 7.504 7.453-3.727 10.928-12.254 8.528-19.976-1.309-4.6-26.271-95.685 3.827-176.229 13.228-35.353 8.242-61.071 5.556-74.886-0.42-2.115-0.806-3.844-0.906-5.17-0.588-8.83-7.94-16.25-16.77-16.25zM560.061 292.016c-5.389 0-10.693 2.585-13.933 7.386-27.514 40.775-61.49 156.471-31.173 241.899 25.785 72.754 23.267 94.829 22.461 98.64-3.844 6.262-3.223 14.537 1.998 20.178 6.295 6.815 16.921 7.218 23.72 0.906 14.924-13.832 9.35-57.881-16.535-130.938-26.171-73.762 3.911-177.152 27.379-211.901 5.187-7.688 3.156-18.113-4.532-23.317-2.887-1.914-6.144-2.854-9.384-2.854z" />
<glyph unicode="&#xe90b;" glyph-name="target" d="M1024 512h-100.924c-27.64 178.24-168.836 319.436-347.076 347.076v100.924h-128v-100.924c-178.24-27.64-319.436-168.836-347.076-347.076h-100.924v-128h100.924c27.64-178.24 168.836-319.436 347.076-347.076v-100.924h128v100.924c178.24 27.64 319.436 168.836 347.076 347.076h100.924v128zM792.822 512h-99.762c-19.284 54.55-62.51 97.778-117.060 117.060v99.762c107.514-24.49 192.332-109.31 216.822-216.822zM512 384c-35.346 0-64 28.654-64 64s28.654 64 64 64c35.346 0 64-28.654 64-64s-28.654-64-64-64zM448 728.822v-99.762c-54.55-19.282-97.778-62.51-117.060-117.060h-99.762c24.49 107.512 109.31 192.332 216.822 216.822zM231.178 384h99.762c19.282-54.55 62.51-97.778 117.060-117.060v-99.762c-107.512 24.49-192.332 109.308-216.822 216.822zM576 167.178v99.762c54.55 19.284 97.778 62.51 117.060 117.060h99.762c-24.49-107.514-109.308-192.332-216.822-216.822z" />
<glyph unicode="&#xe90c;" glyph-name="facebookcircle" d="M596.389 759.212c-0.155 0.007-1.633 0.099-4.167 0.099-25.598 0-111.029-7.566-135.783-104.927-0.077-0.303-0.162-0.598-0.274-0.894-0.091-0.267-10.487-31.623-9.030-106.299 0.056-2.836-1.028-5.574-3.019-7.601-1.985-2.027-4.702-3.167-7.538-3.167h-105.947v-71.277h115.224c5.835 0 10.557-4.723 10.557-10.557v-337.401h104.469v337.070c0 5.835 4.73 10.557 10.557 10.557h115.59v71.622h-115.372c-5.828 0-10.557 4.723-10.557 10.557v55.785c0 40.463 27.977 81.292 90.477 81.292h41.8v75.12h-96.256c-0.239 0-0.486 0.007-0.732 0.021zM512 960c-282.77 0-512-229.23-512-512s229.23-512 512-512 512 229.23 512 512-229.23 512-512 512zM714.491 673.514c0-5.835-4.73-10.557-10.557-10.557h-52.358c-51.147 0-69.362-31.088-69.362-60.177v-45.228h115.372c5.828 0 10.557-4.723 10.557-10.557v-92.736c0-5.835-4.73-10.557-10.557-10.557h-115.597v-337.070c0-5.828-4.73-10.557-10.557-10.557h-125.57c-5.835 0-10.557 4.73-10.557 10.557v337.408h-115.231c-5.835 0-10.557 4.73-10.557 10.557v92.392c0 5.835 4.723 10.557 10.557 10.557h105.821c-0.366 67.335 8.742 97.994 10.184 102.421 29.371 114.647 135.205 120.46 156.144 120.46 2.653 0 4.448-0.077 5.208-0.12h106.503c5.828 0 10.557-4.723 10.557-10.557v-96.234z" />
<glyph unicode="&#xe90d;" glyph-name="instacircle" d="M512 304.236c40.942 0 74.254 33.305 74.254 74.254s-33.312 74.254-74.254 74.254c-40.949 0-74.261-33.305-74.261-74.254s33.312-74.254 74.261-74.254zM630.025 495.149c29.666-30.011 48.022-71.227 48.022-116.66 0-91.561-74.486-166.047-166.047-166.047s-166.047 74.486-166.047 166.047c0 45.432 18.356 86.648 48.022 116.66h-154.124v-215.611c0-56.532 45.995-102.52 102.52-102.52h339.245c56.532 0 102.527 45.988 102.527 102.52v215.611h-154.117zM713.175 631.917h-54.483c-4.188 0-7.594-3.407-7.594-7.601v-54.455c0-4.188 3.407-7.587 7.594-7.587h54.483c4.181 0 7.58 3.399 7.58 7.587v54.455c0 4.195-3.399 7.601-7.58 7.601zM367.068 378.49c0-79.92 65.013-144.932 144.932-144.932s144.932 65.013 144.932 144.932c0 47.86-23.423 90.252-59.298 116.66h-0.823v0.619c-23.881 17.314-53.125 27.653-84.811 27.653s-60.93-10.339-84.811-27.653v-0.619h-0.823c-35.874-26.408-59.298-68.799-59.298-116.66zM512 473.859c52.59 0 95.369-42.779 95.369-95.369s-42.786-95.369-95.369-95.369c-52.59 0-95.376 42.779-95.376 95.369s42.786 95.369 95.376 95.369zM512 960c-282.77 0-512-229.23-512-512s229.23-512 512-512 512 229.23 512 512-229.23 512-512 512zM805.257 279.539c0-68.173-55.469-123.635-123.642-123.635h-339.245c-68.173 0-123.635 55.462-123.635 123.635v325.112c0 68.18 55.462 123.635 123.635 123.635h339.245c68.18 0 123.642-55.462 123.642-123.635v-325.112zM681.616 707.171h-339.245c-56.532 0-102.52-45.988-102.52-102.52v-88.387h179.568c26.471 17.842 58.326 28.273 92.582 28.273s66.118-10.431 92.582-28.273h179.561v88.387c0 56.532-45.995 102.52-102.527 102.52zM741.87 569.854c0-15.829-12.873-28.702-28.695-28.702h-54.483c-15.829 0-28.709 12.873-28.709 28.702v54.455c0 15.836 12.88 28.716 28.709 28.716h54.483c15.822 0 28.695-12.88 28.695-28.716v-54.455z" />
<glyph unicode="&#xe90e;" glyph-name="twittercircle" d="M791.983 591.349c-1.682 4.357-0.303 9.298 3.385 12.162 21.030 16.273 33.509 30.117 40.907 40.794-28.146-13.021-53.758-15.365-68.518-15.365l-2.358 0.021c-2.766 0.049-5.405 1.182-7.341 3.153-23.656 24.029-55.251 37.268-88.95 37.268-68.806 0-124.782-55.961-124.782-124.754 0-10.536 1.316-20.981 3.899-31.046 0.788-3.062 0.162-6.306-1.703-8.861-1.865-2.541-4.772-4.131-7.925-4.307-136.416-7.721-248.839 97.769-282.833 133.594-15.724-34.375-14.71-69.721 3.062-105.279 15.217-30.448 37.24-49.388 37.458-49.571 3.16-2.689 4.448-6.968 3.308-10.952s-4.512-6.933-8.608-7.538c-2.569-0.38-5.251-0.57-7.967-0.57-13.323 0-26.422 4.624-36.367 9.382 3.456-35.304 18.912-63.57 46.087-84.213 23.902-18.145 47.924-23.283 48.163-23.325 4.469-0.929 7.841-4.624 8.347-9.164 0.507-4.547-1.964-8.896-6.123-10.783-8.34-3.794-19.088-5.715-31.947-5.715-4.314 0-8.488 0.211-12.282 0.535 31.109-69.602 102.907-70.453 106.158-70.453 4.174 0 8.010-2.463 9.699-6.278s1.035-8.27-1.76-11.36c-47.389-52.414-116.427-63.422-166.005-63.422-0.331 0.007-0.676 0.007-1.028 0.007 58.861-31.461 123.444-38.774 170.721-38.774 45.129 0.007 77.062 6.672 77.379 6.736 134.333 31.377 226.182 105.546 272.797 220.397 34.832 85.818 29.997 162.964 29.941 163.739-0.218 3.224 1.049 6.37 3.442 8.544 21.812 19.771 36.627 34.755 46.65 45.861-20.587-5.145-40.716-6.898-44.222-7.179-4.695-0.331-8.995 2.365-10.684 6.715zM512 960c-282.77 0-512-229.23-512-512s229.23-512 512-512 512 229.23 512 512-229.23 512-512 512zM818.067 533.621c0.859-42.342-5.356-327.597-319.383-400.943-1.591-0.352-34.481-7.249-81.996-7.256-59.994 0-146.523 11.282-217.997 65.013-3.906 2.935-5.279 8.164-3.336 12.641 1.95 4.483 6.715 6.996 11.522 6.201 0.162-0.035 16.47-2.851 40.125-2.851 39.999 0 93.68 7.637 134.741 41.547-31.848 6.37-87.014 27.653-109.009 98.613-1.112 3.582-0.232 7.482 2.294 10.248 2.534 2.773 6.363 3.984 10.008 3.202 0.070-0.021 4.286-0.908 10.501-1.647-32.383 19.039-71.903 57.235-70.707 129.997 0.063 3.948 2.33 7.524 5.863 9.283 3.526 1.753 7.756 1.394 10.937-0.943 0.127-0.099 8.643-6.222 19.897-10.74-25.711 32.763-60.677 97.339-17.209 171.664 1.731 2.963 4.786 4.892 8.2 5.187 3.392 0.324 6.757-1.077 8.974-3.695 1.168-1.372 118.602-138 262.978-138 0.218 0 0.436 0 0.648 0-1.253 7.742-1.886 15.597-1.886 23.501 0 80.434 65.449 145.868 145.897 145.868 37.908 0 73.529-14.316 100.802-40.421 17.511 0.303 49.564 4.519 81.56 27.421 2.717 1.943 6.194 2.485 9.368 1.471 3.181-1.021 5.687-3.484 6.764-6.637 0.091-0.26 5.391-23.536-31.82-61.381 13.689 2.977 27.513 7.256 35.311 13.070 3.618 2.71 8.552 2.801 12.282 0.246 3.723-2.548 5.419-7.186 4.209-11.543-0.985-3.526-8.918-23.67-69.538-79.117z" />
<glyph unicode="&#xe90f;" glyph-name="yelpcircle" d="M570.84 427.357c4.103-6.377 10.642-9.734 16.427-8.608 2.217 0.542 16.702 4.089 32.418 7.869 88.499 21.783 108.256 26.914 111.233 28.885 4.012 2.738 4.617 7.679 4.406 11.325l-0.042 0.598 0.021 0.317c-3.407 23.93-46.41 88.521-65.153 97.832-4.497 2.21-8.516 2.175-11.895-0.134-2.724-1.809-14.985-18.771-61.444-83.34-21.185-29.307-25.296-34.966-26.422-36.409l0.014-0.007c-3.843-4.73-3.667-11.923 0.436-18.328zM489.104 745.501c-1.316 4.026-4.497 6.715-9.459 7.995-1.197 0.303-3.547 0.676-7.693 0.676-34.889 0-117.582-25.415-132.066-40.597-3.16-3.357-4.709-7.313-4.237-10.754 7.404-12.782 81.229-131.102 130.469-209.79 8.2-13.492 16.709-21.157 23.423-21.157 1.598 0 2.872 0.408 3.991 0.76 3.16 1.006 12.711 4.047 11.339 32.39-1.851 43.623-14.091 226.4-15.766 240.477zM441.307 372.585c5.793 1.485 9.671 7.271 10.114 15.097 0.422 8.087-3.449 15.139-9.635 17.497-0.246 0.099-21.284 8.826-27.689 11.458h-0.049l-1.957 0.816c-81.862 34.298-102.984 43.004-106.173 43.039l-0.732 10.572v-10.557c-3.787 0-7.038-2.133-9.671-6.341-8.080-13.176-12.831-61.775-9.354-96.22 1.555-14.238 3.843-20.362 5.068-22.727 1.323-2.548 4.336-6.876 9.607-7.045l0.648-0.028c3.322 0 27.618 7.883 97.389 30.68 0.021 0.007 35.388 11.465 40.921 13.288l1.513 0.472zM492.518 313.583c-7.186 2.787-14.949 1.232-18.968-3.892-11.486-13.851-17.441-21.044-21.087-24.768l0.289-0.239c-61.135-72.888-72.079-86.296-73.233-89.604-0.563-1.612-0.753-3.062-0.584-4.434 0.253-2.59 1.422-5.124 3.407-7.573 12.69-15.365 78.934-41.223 105.729-41.223 1.562 0 2.893 0.099 3.948 0.274 4.927 0.915 8.2 3.357 9.607 7.235 1.028 3.005 1.211 15.709 1.457 104.392 0.246 44.278 0.26 44.721 0.267 44.883 0.401 6.574-3.758 12.169-10.832 14.949zM637.83 329.194c-33.58 11.282-40.322 13.577-42.082 14.238v-0.014c-1.387 0.549-2.829 0.823-4.3 0.823-4.462 0-8.995-2.492-12.451-6.841-5.152-6.405-6.004-14.316-2.203-20.214l16.688-27.534c45.777-75.542 58.559-96.312 61.289-98.466 3.238-2.59 7.052-2.787 11.655-0.908 19.975 8.080 69.306 71.868 72.361 93.525 0.493 3.59 0.253 8.58-3.723 11.789-2.485 1.907-18.201 7.249-97.234 33.601zM512 960c-282.77 0-512-229.23-512-512s229.23-512 512-512 512 229.23 512 512-229.23 512-512 512zM299.915 307.079c-11.296 0.373-21.643 7.264-27.428 18.433-3.428 6.63-5.821 16.519-7.32 30.236-3.167 31.405-0.57 88.408 12.401 109.544 6.51 10.41 16.561 16.336 27.618 16.336l1.26-0.021c6.926-0.070 7.355-0.077 113.802-44.665l-0.049-0.127c3.604-1.323 11.205-4.469 29.399-12.014 14.492-5.525 23.811-20.946 22.91-38.26-0.964-17.117-11.142-30.602-25.929-34.403-3.392-1.154-12.789-4.202-41.167-13.387-93.44-30.532-97.332-31.722-103.927-31.722-0.542 0-1.049 0.021-1.57 0.049zM524.183 253.659c-0.282-104.392-0.422-104.786-2.653-111.325-4.040-11.12-13.415-18.701-25.795-20.988-2.358-0.422-4.899-0.619-7.672-0.619-31.018 0-104.223 27.358-122.072 48.972-4.673 5.764-7.439 12.197-8.059 18.68-0.521 4.314 0.014 8.988 1.633 13.633 2.372 6.841 2.625 7.552 76.992 96.242l3.174 3.773c5.694 6.834 17.37 20.932 17.378 20.932 9.424 11.986 27.365 16.413 43.102 10.283 15.66-6.158 25.162-20.108 24.219-35.557 0-0.999-0.246-44.024-0.246-44.024zM499.965 452.512c-1.83-0.563-5.56-1.753-10.431-1.753-14.893 0-28.822 10.494-41.392 31.187-30.159 48.184-129.019 206.285-132.045 212.662l-0.676 1.858c-2.808 10.747 0.605 22.572 9.15 31.63 19.897 20.847 108.488 47.178 147.382 47.178 5.145 0 9.368-0.436 12.908-1.33 12.549-3.224 21.558-11.754 24.775-23.409l0.232-1.042c1.654-9.797 14.295-200.971 16.104-243.518 1.429-29.497-7.32-47.508-26.006-53.463zM553.906 458.867c1.992 2.675 25.767 35.586 25.767 35.586 60.853 84.565 60.966 84.642 66.765 88.499 9.586 6.553 21.671 7.144 33.052 1.562 25.64-12.739 73.74-84.776 76.865-115.062l0.084-0.831-0.021-0.985c0.612-12.479-4.378-23.269-13.725-29.652-5.905-3.913-6.792-4.505-118.018-31.869-13.732-3.315-26.499-6.426-30.983-7.517-2.865-0.802-5.785-1.182-8.692-1.182-12.275 0-24.381 6.792-31.926 18.518-9.093 14.189-8.756 31.011 0.831 42.934zM759.712 280.876c-4.139-29.265-58.34-99.254-85.297-110.149-4.512-1.851-9.129-2.808-13.633-2.808-7.017 0-13.64 2.33-19.165 6.75-5.356 4.244-6.046 4.793-66.195 104.040l-16.533 27.287c-8.516 13.218-7.13 31.236 3.618 44.588 10.234 12.894 26.879 18.018 40.921 12.5 2.28-0.816 25.711-8.699 41.104-13.872 97.888-32.644 98.1-32.805 103.604-37.050 9.157-7.369 13.309-18.722 11.578-31.285z" />
<glyph unicode="&#xe910;" glyph-name="heart" d="M511.933-25.659l-8.561 5.103c-157.108 93.335-290.732 223.249-376.278 365.803-76.129 126.926-109.283 255.144-93.385 361.052 11.029 73.51 44.938 133.489 100.805 178.277 34.531 27.749 70.74 41.833 107.587 41.833 144.015 0 256.252-210.323 257.343-212.438l12.422-23.434 12.59 23.535c0.084 0.201 35.42 65.721 90.062 123.098 94.863 99.395 189.507 116.048 274.885 47.406 74.467-59.745 110.458-148.413 104.062-256.386-11.264-190.061-161.893-464.359-472.97-648.763l-8.561-5.086zM242.1 892.836c-29.008 0-58.133-11.583-86.57-34.43-49.085-39.348-78.898-92.194-88.635-157.075-14.739-98.237 16.871-218.565 88.987-338.81 81.165-135.302 207.385-258.954 356.067-349.083 294.66 178.008 437.366 437.282 448.008 616.733 5.708 96.659-25.953 175.574-91.589 228.234-72.234 58.083-147.271 41.833-229.544-44.401-51.133-53.684-84.388-115.057-84.707-115.662l-42.37-79.268-42.068 79.335c-1.058 2.014-106.53 194.426-227.58 194.426z" />
<glyph unicode="&#xe911;" glyph-name="location" d="M512-42.16l-13.564 18.566c-76.313 104.582-325.33 458.316-325.33 618.681 0 186.872 152.022 338.894 338.894 338.894s338.894-152.022 338.894-338.894c0-160.6-249.017-514.132-325.347-618.681l-13.547-18.566zM512 900.407c-168.356 0-305.32-136.964-305.32-305.32 0-115.863 155.228-372.048 305.32-580.188 150.092 208.023 305.32 464.141 305.32 580.188 0 168.356-136.964 305.32-305.32 305.32zM512 419.764c-96.659 0-175.289 78.647-175.289 175.305s78.63 175.289 175.289 175.289 175.272-78.63 175.272-175.289c0-96.659-78.613-175.305-175.272-175.305zM512 736.785c-78.143 0-141.715-63.572-141.715-141.715s63.572-141.732 141.715-141.732c78.126 0 141.698 63.589 141.698 141.732s-63.572 141.715-141.698 141.715z" />
<glyph unicode="&#xe912;" glyph-name="yelp" d="M201.762 241.471c-0.017 0-0.017 0 0 0l-2.266 0.067c-17.139 0.571-32.785 10.962-41.514 27.816-5.070 9.837-8.746 24.962-10.895 45.006-4.684 46.449-0.806 130.787 18.432 162.161 9.787 15.713 24.979 24.66 41.749 24.66l1.897-0.034c10.643-0.101 11.079-0.118 168.104-65.922l-0.084-0.185c5.489-1.998 16.787-6.681 43.327-17.693 21.823-8.259 35.89-31.475 34.514-57.545-1.477-25.835-16.854-46.13-39.197-51.821v0.017c-5.086-1.763-16.602-5.506-44.855-14.655l-15.595-5.070c-137.938-45.039-143.696-46.802-153.617-46.802zM208.241 467.59c-6.161 0-10.576-2.938-14.168-8.712-11.801-19.238-18.701-90.481-13.597-141.010 2.317-21.521 5.909-30.317 7.336-33.087 1.813-3.492 5.943-9.434 13.111-9.686l0.839-16.82v16.787c4.801 0 44.871 13.027 143.192 45.123l0.050-0.168c3.492 1.326 8.41 2.921 15.612 5.254 15.394 4.986 37.535 12.17 43.864 14.252l3.089 0.99c7.974 2.031 13.329 10.139 13.95 21.118 0.604 11.382-4.784 21.269-13.379 24.526-0.42 0.168-30.972 12.842-40.624 16.804h-0.101l-3.139 1.309c-114.084 47.809-151.367 63.27-155.967 63.32-0.017 0-0.050 0-0.067 0zM476.731-33.028c-0.017 0-0.017 0 0 0-45.946 0-154.372 40.574-180.828 72.603-7.050 8.712-11.214 18.415-12.154 28.202-0.789 6.547 0.034 13.631 2.484 20.631 3.626 10.441 3.911 11.298 113.664 142.168l5.036 5.993c8.511 10.206 25.231 30.401 25.231 30.401 14.151 18.012 41.128 24.777 64.881 15.511 23.586-9.266 37.905-30.3 36.495-53.601-0.017-2.014-0.353-64.797-0.353-64.797-0.403-154.053-0.621-154.641-3.995-164.461-6.060-16.753-20.228-28.219-38.912-31.71-3.542-0.638-7.336-0.94-11.549-0.94zM425.195 209.341l0.42-0.353c-84.505-100.772-105.992-126.791-107.671-131.643-0.772-2.199-1.041-4.146-0.806-5.976 0.353-3.609 1.981-7.101 4.767-10.542 18.533-22.444 115.544-60.282 154.825-60.282 0 0 0 0 0 0 2.082 0 3.945 0.118 5.59 0.386 6.782 1.259 11.298 4.583 13.211 9.854 1.528 4.449 1.746 31.123 2.082 153.415 0.353 65.402 0.386 66.023 0.403 66.442 0.537 8.88-5.288 16.653-15.209 20.564-10.055 3.911-20.933 1.746-26.523-5.338-16.72-20.178-25.583-30.871-31.089-36.528zM619.57 374.658c-18.516 0-36.73 10.206-48.078 27.849-13.732 21.42-13.161 46.886 1.46 64.881 1.83 2.451 37.77 52.19 37.77 52.19 89.776 124.76 89.944 124.861 98.707 130.703 14.454 9.887 32.734 10.811 49.924 2.384 37.989-18.852 109.283-125.583 113.949-170.504l0.118-1.175-0.034-2.115c1.074-17.895-6.48-34.463-20.749-44.233-8.897-5.875-10.223-6.748-174.315-47.138-19.909-4.784-38.425-9.3-45.325-10.979v-0.017c-4.449-1.259-8.931-1.847-13.43-1.847zM735.702 624.85c-3.995 0-6.446-1.679-7.521-2.401-3.844-2.552-23.3-29.478-90.23-122.494-38.442-53.214-38.694-53.483-39.5-54.373-4.767-5.909-4.499-15.931 1.276-24.912 5.674-8.813 14.537-13.665 22.545-12.204 1.88 0.453 24.039 5.875 48.094 11.65 130.216 32.046 159.274 39.583 163.521 42.387 5.389 3.693 6.228 10.542 5.943 15.612l-0.050 0.806 0.034 1.225c-3.374 31.828-67.567 128.638-95.333 142.403-3.475 1.712-6.396 2.3-8.78 2.3zM478.846 453.238v0c-22.41 0-43.293 15.662-62.044 46.533-44.418 70.992-190.095 303.994-194.594 313.462l-1.074 2.971c-4.247 16.283 0.906 34.145 13.782 47.775 29.478 30.888 160.55 69.884 218.062 69.884 7.672 0 13.983-0.655 19.305-1.998 18.936-4.851 32.55-17.744 37.384-35.37 2.837-16.166 21.47-298.001 24.106-360.633 2.132-44.116-11.063-71.059-39.214-79.99-2.736-0.856-8.343-2.636-15.713-2.636zM253.314 826.259c11.432-19.624 119.774-193.318 192.076-308.862 11.852-19.506 24.005-30.586 33.473-30.586 2.166 0 3.878 0.537 5.54 1.058 4.415 1.393 17.811 5.64 15.83 46.483-2.669 63.689-20.681 332.699-23.199 354.136-1.813 5.439-6.194 9.098-13.027 10.844-1.393 0.353-4.751 0.957-11.029 0.957-51.2 0-172.502-37.217-193.721-59.426-4.314-4.583-6.48-9.938-5.943-14.605zM731.22 36.47c-10.643 0-20.648 3.542-29.025 10.223-8.192 6.513-9.048 7.202-97.8 153.617l-24.358 40.221c-12.808 19.909-10.727 47.020 5.422 67.114 15.41 19.406 40.574 27.144 61.793 18.768 3.626-1.326 60.416-20.379 60.416-20.379 144.434-48.178 144.737-48.43 153.029-54.809 13.849-11.163 20.111-28.303 17.509-47.222-6.144-43.377-86.486-147.12-126.405-163.303-6.815-2.787-13.765-4.23-20.581-4.23zM629.072 296.314c-6.194 0-12.523-3.508-17.374-9.619-7.269-9.015-8.477-20.127-3.173-28.353l24.61-40.591c62.145-102.534 85.999-141.597 90.028-144.787 4.398-3.542 9.602-3.76 15.931-1.142 29.209 11.835 101.376 105.187 105.875 136.863 0.688 4.952 0.353 11.835-5.053 16.216-3.458 2.652-28.387 11.13-142.907 49.32-61.524 20.648-61.96 20.866-63.287 21.504-0.655 0.201-2.636 0.588-4.65 0.588z" />
<glyph unicode="&#xe913;" glyph-name="arrow-down-circle" d="M841.236 492.8l-309.873-276.070c-3.881-3.451-9.738-3.451-13.619 0l-309.873 276.060c-3.686 3.277-4.506 8.755-1.935 12.974l62.157 102.042c1.618 2.662 4.352 4.434 7.424 4.833 3.082 0.399 6.175-0.614 8.417-2.765l240.333-230.513 240.927 230.533c2.232 2.14 5.325 3.154 8.407 2.755 3.072-0.41 5.806-2.181 7.424-4.833l62.147-102.042c1.004-1.659 1.495-3.502 1.495-5.325 0-2.847-1.178-5.652-3.43-7.649zM531.343 357.765c-3.963-3.789-10.209-3.789-14.172 0.010l-238.213 228.485-51.087-83.855 296.673-264.315 296.694 264.315-51.077 83.876-238.817-228.516zM512-58.88c-279.491 0-506.88 227.389-506.88 506.88s227.389 506.88 506.88 506.88 506.88-227.389 506.88-506.88-227.389-506.88-506.88-506.88zM512-38.4c268.196 0 486.4 218.204 486.4 486.4s-218.204 486.4-486.4 486.4-486.4-218.204-486.4-486.4 218.204-486.4 486.4-486.4z" />
<glyph unicode="&#xe914;" glyph-name="arrow-down" d="M513.403 202.312c-0.471 0-0.942 0.031-1.413 0.102-1.239-0.184-2.509-0.113-3.748 0.174-2.591 0.614-4.833 2.202-6.267 4.444l-490.65 304.62c-4.772 2.97-6.267 9.226-3.348 14.029l99.338 163.103c1.423 2.335 3.717 4.004 6.369 4.639 2.652 0.645 5.448 0.184 7.782-1.26l390.533-242.555 390.533 242.555c2.314 1.444 5.12 1.905 7.772 1.26 2.662-0.635 4.946-2.304 6.38-4.639l99.338-163.103c2.918-4.803 1.434-11.059-3.348-14.029l-490.65-304.64c-1.956-3.041-5.253-4.7-8.622-4.7zM30.751 523.694l481.249-298.803 481.239 298.803-88.678 145.613-386.683-240.159c-2.181-1.362-4.762-1.823-7.199-1.382-1.628 0.102-3.215 0.543-4.567 1.382l-386.673 240.159-88.689-145.613z" />
<glyph unicode="&#xe915;" glyph-name="arrow-left-circle" d="M556.8 118.764l-276.070 309.873c-3.451 3.881-3.451 9.738 0 13.619l276.060 309.873c3.277 3.686 8.755 4.506 12.974 1.935l102.042-62.157c2.662-1.618 4.434-4.352 4.833-7.424 0.399-3.082-0.614-6.175-2.765-8.417l-230.513-240.333 230.533-240.927c2.14-2.232 3.154-5.325 2.755-8.407-0.41-3.072-2.181-5.806-4.833-7.424l-102.042-62.147c-1.659-1.004-3.502-1.495-5.325-1.495-2.847 0-5.652 1.178-7.649 3.43zM421.765 428.657c-3.789 3.963-3.789 10.209 0.010 14.172l228.485 238.213-83.855 51.087-264.315-296.673 264.315-296.694 83.876 51.077-228.516 238.817zM5.12 448c0 279.491 227.389 506.88 506.88 506.88s506.88-227.389 506.88-506.88-227.389-506.88-506.88-506.88-506.88 227.389-506.88 506.88zM25.6 448c0-268.196 218.204-486.4 486.4-486.4s486.4 218.204 486.4 486.4-218.204 486.4-486.4 486.4-486.4-218.204-486.4-486.4z" />
<glyph unicode="&#xe916;" glyph-name="arrow-left" d="M271.002 458.025l304.64 490.65c2.97 4.782 9.226 6.267 14.029 3.348l163.103-99.338c2.335-1.434 4.004-3.717 4.639-6.38 0.635-2.652 0.184-5.458-1.26-7.772l-242.555-390.533 242.555-390.523c1.444-2.335 1.915-5.13 1.26-7.782-0.635-2.652-2.304-4.946-4.639-6.369l-163.103-99.338c-4.803-2.929-11.059-1.434-14.029 3.348l-304.63 490.639c-2.243 1.434-3.83 3.676-4.444 6.267-0.276 1.239-0.348 2.509-0.174 3.748-0.072 0.471-0.102 0.942-0.102 1.413 0.010 3.379 1.669 6.676 4.71 8.622zM733.297 55.45l-240.148 386.673c-0.84 1.352-1.28 2.939-1.382 4.567-0.44 2.437 0.020 5.018 1.382 7.199l240.159 386.683-145.613 88.678-298.803-481.239 298.803-481.249 145.603 88.689z" />
<glyph unicode="&#xe917;" glyph-name="arrow-right-circle" d="M459.551 115.333c-1.823 0-3.666 0.492-5.325 1.495l-102.042 62.147c-2.652 1.618-4.424 4.352-4.833 7.424-0.399 3.082 0.614 6.175 2.755 8.407l230.533 240.927-230.513 240.333c-2.15 2.243-3.164 5.335-2.765 8.417 0.399 3.072 2.171 5.806 4.833 7.424l102.042 62.157c4.219 2.57 9.697 1.751 12.974-1.935l276.060-309.873c3.451-3.881 3.451-9.738 0-13.619l-276.070-309.873c-1.997-2.253-4.803-3.43-7.649-3.43zM373.719 189.839l83.876-51.077 264.315 296.694-264.315 296.673-83.855-51.087 228.485-238.213c3.799-3.963 3.799-10.209 0.010-14.172l-228.516-238.817zM512-58.88c-279.491 0-506.88 227.389-506.88 506.88s227.389 506.88 506.88 506.88c279.491 0 506.88-227.389 506.88-506.88s-227.389-506.88-506.88-506.88zM512 934.4c-268.196 0-486.4-218.204-486.4-486.4s218.204-486.4 486.4-486.4 486.4 218.204 486.4 486.4-218.204 486.4-486.4 486.4z" />
<glyph unicode="&#xe918;" glyph-name="arrow-right" d="M757.699 449.413c0-0.471-0.031-0.942-0.102-1.413 0.184-1.239 0.113-2.509-0.174-3.748-0.614-2.591-2.202-4.833-4.444-6.267l-304.62-490.65c-2.97-4.772-9.226-6.267-14.029-3.348l-163.103 99.338c-2.335 1.423-4.004 3.717-4.639 6.369-0.645 2.652-0.184 5.448 1.26 7.782l242.555 390.523-242.555 390.533c-1.444 2.314-1.905 5.12-1.26 7.772 0.635 2.662 2.304 4.946 4.639 6.38l163.103 99.338c4.803 2.918 11.059 1.434 14.029-3.348l304.64-490.65c3.041-1.946 4.7-5.243 4.7-8.612zM436.316-33.239l298.803 481.249-298.803 481.239-145.613-88.678 240.159-386.683c1.362-2.181 1.823-4.762 1.382-7.199-0.102-1.628-0.543-3.215-1.382-4.567l-240.159-386.673 145.613-88.689z" />
<glyph unicode="&#xe919;" glyph-name="arrow-simple-down" d="M962.56 636.242c0 2.355-0.809 4.721-2.458 6.646-3.666 4.301-10.138 4.803-14.428 1.126l-433.674-370.78-433.664 370.79c-4.301 3.676-10.762 3.174-14.438-1.126s-3.174-10.762 1.126-14.438l440.32-376.474c3.83-3.277 9.482-3.277 13.302 0l440.32 376.474c2.376 2.017 3.594 4.895 3.594 7.782z" />
<glyph unicode="&#xe91a;" glyph-name="arrow-simple-left" d="M700.242-2.56c2.355 0 4.721 0.809 6.646 2.458 4.301 3.666 4.803 10.138 1.126 14.428l-370.79 433.674 370.79 433.664c3.676 4.301 3.174 10.762-1.126 14.438s-10.762 3.174-14.438-1.126l-376.474-440.32c-3.277-3.83-3.277-9.482 0-13.302l376.474-440.32c2.028-2.376 4.905-3.594 7.793-3.594z" />
<glyph unicode="&#xe91b;" glyph-name="arrow-simple-right" d="M323.758-2.56c-2.355 0-4.721 0.809-6.646 2.458-4.301 3.666-4.803 10.138-1.126 14.428l370.78 433.674-370.79 433.664c-3.676 4.301-3.174 10.762 1.126 14.438s10.762 3.174 14.438-1.126l376.474-440.32c3.277-3.83 3.277-9.482 0-13.302l-376.474-440.32c-2.017-2.376-4.895-3.594-7.782-3.594z" />
<glyph unicode="&#xe91c;" glyph-name="arrow-simple-up" d="M962.56 259.758c0-2.355-0.809-4.721-2.458-6.646-3.666-4.301-10.138-4.803-14.428-1.126l-433.674 370.79-433.664-370.801c-4.301-3.676-10.762-3.174-14.438 1.126s-3.174 10.762 1.126 14.438l440.32 376.474c3.83 3.277 9.482 3.277 13.302 0l440.32-376.474c2.376-2.017 3.594-4.895 3.594-7.782z" />
<glyph unicode="&#xe91d;" glyph-name="arrow-up-circle" d="M844.667 395.551c0-1.823-0.492-3.666-1.495-5.325l-62.147-102.042c-1.618-2.652-4.352-4.424-7.424-4.833-3.082-0.399-6.175 0.614-8.407 2.755l-240.927 230.533-240.333-230.513c-2.243-2.15-5.335-3.164-8.417-2.765-3.072 0.399-5.806 2.171-7.424 4.833l-62.157 102.042c-2.57 4.219-1.751 9.697 1.935 12.974l309.873 276.060c3.881 3.451 9.738 3.451 13.619 0l309.873-276.070c2.253-1.997 3.43-4.803 3.43-7.649zM770.161 309.719l51.077 83.876-296.694 264.315-296.673-264.315 51.087-83.855 238.213 228.485c3.963 3.799 10.209 3.799 14.172 0.010l238.817-228.516zM1018.88 448c0-279.491-227.389-506.88-506.88-506.88s-506.88 227.389-506.88 506.88 227.389 506.88 506.88 506.88 506.88-227.389 506.88-506.88zM25.6 448c0-268.196 218.204-486.4 486.4-486.4s486.4 218.204 486.4 486.4-218.204 486.4-486.4 486.4-486.4-218.204-486.4-486.4z" />
<glyph unicode="&#xe91e;" glyph-name="arrow-up" d="M522.025 688.998l490.65-304.64c4.782-2.97 6.267-9.226 3.348-14.029l-99.338-163.103c-1.434-2.335-3.717-4.004-6.38-4.639-2.652-0.635-5.458-0.184-7.772 1.26l-390.533 242.555-390.523-242.545c-2.335-1.444-5.13-1.915-7.782-1.26-2.652 0.635-4.946 2.304-6.369 4.639l-99.338 163.103c-2.929 4.803-1.434 11.059 3.348 14.029l490.639 304.63c1.434 2.243 3.676 3.83 6.267 4.444 1.239 0.276 2.509 0.348 3.748 0.174 0.471 0.072 0.942 0.102 1.413 0.102 3.369-0.020 6.666-1.679 8.622-4.721zM119.439 226.703l386.673 240.159c1.352 0.84 2.939 1.28 4.567 1.382 2.437 0.44 5.018-0.020 7.199-1.382l386.683-240.159 88.678 145.613-481.239 298.803-481.249-298.803 88.689-145.613z" />
<glyph unicode="&#xe91f;" glyph-name="clock" d="M512-58.88c-279.491 0-506.88 227.389-506.88 506.88s227.389 506.88 506.88 506.88c279.491 0 506.88-227.389 506.88-506.88s-227.389-506.88-506.88-506.88zM512 934.4c-268.196 0-486.4-218.204-486.4-486.4s218.204-486.4 486.4-486.4 486.4 218.204 486.4 486.4-218.204 486.4-486.4 486.4zM512 437.76c-1.382 0-2.775 0.276-4.076 0.85l-220.211 95.601c-5.181 2.253-7.567 8.284-5.315 13.476 2.253 5.181 8.264 7.578 13.476 5.315l205.885-89.395v376.924c0 5.652 4.588 10.24 10.24 10.24 5.663 0 10.24-4.588 10.24-10.24v-392.53c0-3.451-1.741-6.666-4.618-8.561-1.7-1.106-3.656-1.679-5.622-1.679z" />
<glyph unicode="&#xe920;" glyph-name="target2" d="M509.778 174.858c-149.443 0-271.012 121.58-271.012 271.012s121.58 271.012 271.012 271.012c149.432 0 271.002-121.58 271.002-271.012s-121.569-271.012-271.002-271.012zM509.778 696.402c-138.148 0-250.532-112.384-250.532-250.532s112.394-250.532 250.532-250.532c138.138 0 250.522 112.394 250.522 250.532s-112.394 250.532-250.522 250.532zM512 558.684c-5.652 0-10.24 4.588-10.24 10.24v318.72c0 5.652 4.588 10.24 10.24 10.24s10.24-4.588 10.24-10.24v-318.72c0-5.663-4.577-10.24-10.24-10.24zM512-1.884c-5.652 0-10.24 4.577-10.24 10.24v318.72c0 5.663 4.588 10.24 10.24 10.24s10.24-4.577 10.24-10.24v-318.72c0-5.652-4.577-10.24-10.24-10.24zM951.644 437.76h-318.72c-5.663 0-10.24 4.588-10.24 10.24s4.577 10.24 10.24 10.24h318.72c5.663 0 10.24-4.588 10.24-10.24s-4.588-10.24-10.24-10.24zM391.076 437.76h-318.72c-5.652 0-10.24 4.588-10.24 10.24s4.588 10.24 10.24 10.24h318.72c5.652 0 10.24-4.588 10.24-10.24s-4.577-10.24-10.24-10.24z" />
<glyph unicode="&#xe921;" glyph-name="truckfill" d="M995.922 444.375l-103.434 46.807-75.1 211.18c-2.181 5.437-7.629 8.714-13.066 8.714h-767.416c-6.533 0-13.056-5.448-9.789-13.066v-457.165c0-6.543 5.437-13.066 13.056-13.066h96.881c0-46.807 39.178-83.814 84.9-83.814s83.825 37.007 84.91 83.814h410.368c0-46.807 38.124-83.814 84.92-83.814 45.722 0 83.825 37.007 84.91 83.814h103.404c6.543 0 13.056 5.448 13.056 13.066v190.484c0.010 5.427-3.256 9.779-7.598 13.046z" />
<glyph unicode="&#xe922;" glyph-name="truckoutline" d="M625.162 430.336v222.065c0 6.533-5.437 13.056-13.066 13.056h-471.337c-6.533 0-13.066-5.448-13.066-13.056v-222.065c0-6.533 5.448-13.056 13.066-13.056h471.327c7.639 0 14.162 6.533 13.076 13.056zM154.911 444.498v142.592c17.418-17.418 40.284-27.208 65.311-27.208 32.655 0 62.054 18.504 78.367 44.626 16.343-27.218 44.636-44.626 78.377-44.626 32.655 0 62.065 18.504 78.367 44.626 16.333-27.218 44.636-44.626 78.387-44.626 26.122 0 48.968 10.885 65.3 27.208v-142.592h-444.109zM282.266 639.345c-5.437-29.389-32.645-51.169-63.14-51.169-30.484 0-56.596 21.77-63.14 51.169h126.28zM439.030 639.345c-5.458-29.389-32.666-51.169-63.15-51.169s-56.596 21.77-63.13 51.169h126.28zM596.859 639.345c-5.437-29.389-31.58-51.169-63.13-51.169-30.495 0-56.596 21.77-63.15 51.169h126.28zM24.228 708.25v-457.175c0-6.543 5.437-13.066 13.056-13.066h96.881c0-46.807 39.178-83.814 84.9-83.814s83.825 37.007 84.91 83.814h410.368c0-46.807 38.124-83.814 84.92-83.814 45.722 0 83.825 37.007 84.91 83.814h103.404c6.543 0 13.056 5.448 13.056 13.066v190.484c0 5.448-3.256 9.8-7.598 13.066l-103.434 46.807-75.1 211.18c-2.181 5.437-7.629 8.714-13.066 8.714h-767.416c-6.533-0.010-13.056-5.458-9.789-13.076zM859.126 504.689h-128.451v189.409h60.969l67.482-189.409zM973.425 432.855v-57.702h-925.256v318.945h656.404v-203.551c0-6.533 5.427-13.066 13.056-13.066h157.829l97.966-44.626zM739.4 239.094c0 32.645 26.122 58.778 58.778 58.778 32.645 0 58.767-26.132 58.767-58.778 0-32.666-26.122-58.788-58.767-58.788-31.57 0-57.692 26.122-58.778 58.788zM158.106 239.094c0 32.645 26.122 58.778 58.778 58.778 32.666 0 58.788-26.132 58.788-58.778 0-32.666-26.122-58.788-58.788-58.788-32.655 0-58.778 26.122-58.778 58.788zM48.169 264.131v83.814h925.256v-83.814h-93.624c-10.875 34.826-43.53 59.873-81.633 59.873s-70.758-25.037-81.644-59.873h-418.007c-10.875 34.826-43.54 59.873-81.644 59.873-38.093 0-70.748-25.037-81.644-59.873h-87.060z" />
<glyph unicode="&#xe923;" glyph-name="x" d="M199.076-47.575c-2.621 0-5.243 1.004-7.24 3l-172.421 172.401c-1.925 1.925-3 4.516-3 7.24s1.075 5.325 3 7.24l305.695 305.695-305.695 305.684c-1.925 1.925-3 4.526-3 7.24s1.075 5.325 3 7.24l172.421 172.411c4.004 4.004 10.476 4.004 14.479 0l305.684-305.684 305.674 305.695c3.84 3.84 10.639 3.84 14.479 0l172.421-172.421c1.925-1.925 3-4.526 3-7.24s-1.075-5.325-3-7.24l-305.684-305.684 305.695-305.695c1.925-1.925 3-4.516 3-7.24s-1.075-5.325-3-7.24l-172.411-172.401c-4.004-4.004-10.476-4.004-14.479 0l-305.695 305.674-305.684-305.684c-1.997-1.997-4.618-2.99-7.24-2.99zM41.144 135.066l157.942-157.932 305.684 305.684c4.004 4.004 10.486 4.004 14.49 0l305.674-305.664 157.921 157.911-305.684 305.695c-1.925 1.925-3 4.526-3 7.25s1.075 5.325 3 7.24l305.684 305.674-157.942 157.932-305.674-305.684c-3.84-3.84-10.65-3.84-14.49 0l-305.674 305.674-157.932-157.921 305.684-305.674c1.925-1.925 3-4.526 3-7.24s-1.075-5.325-3-7.25l-305.684-305.695z" />
<glyph unicode="&#xe924;" glyph-name="pizza" d="M944.145 800.827c-7.252 5.808-180.996 142.386-435.704 142.386-149.622 0-295.617-47.641-433.941-141.614-7.017-4.767-9.384-14.017-5.489-21.571l50.545-98.186c1.058-2.048 2.552-3.777 4.297-5.221l358.366-696.404c2.837-5.506 8.494-9.015 14.705-9.098 0.067 0 0.134 0 0.218 0 6.127 0 11.784 3.341 14.722 8.729l384.386 701.675c1.125 2.065 1.729 4.247 1.93 6.446l50.21 91.69c3.911 7.151 2.132 16.065-4.247 21.168zM213.496 585.82c0 0.017 0 0.017 0 0 2.065 29.662 27.984 52.627 58.049 50.478 29.914-2.098 52.543-28.135 50.478-58.049-2.065-29.662-27.883-52.493-58.049-50.445-8.746 0.621-17.223 3.374-24.744 8.024l-25.734 49.991zM354.069 312.647c8.293 3.878 17.458 5.741 26.708 4.986 14.504-1.007 27.732-7.588 37.267-18.533 9.535-10.962 14.235-24.979 13.228-39.5-1.293-18.432-11.868-34.648-27.514-43.512l-49.689 96.558zM497.614 23.711l-82.608 160.533c28.118 13.513 47.54 41.161 49.773 73.023 1.628 23.434-5.959 46.114-21.386 63.857-15.427 17.727-36.83 28.37-60.282 30.015-17.039 1.074-33.792-2.736-48.43-10.811l-79.721 154.926c2.216-0.336 4.415-0.772 6.648-0.94 2.098-0.151 4.197-0.218 6.262-0.218 45.946 0 84.438 35.958 87.628 81.836 3.357 48.363-33.255 90.481-81.635 93.872-36.276 2.636-68.709-17.358-84.287-47.524l-31.626 61.44c32.6 20.127 128.353 73.241 258.585 92.68 0.772 0.118 1.561 0.235 2.35 0.353 8.679 1.259 17.542 2.35 26.54 3.29 3.458 0.353 6.967 0.638 10.458 0.94 7.218 0.655 14.47 1.259 21.873 1.662 9.015 0.47 18.18 0.739 27.43 0.839 2.417 0.034 4.751 0.185 7.168 0.185 120.312-0.101 236.662-34.279 346.246-100.99l-146.466-267.365c-13.866 25.667-39.886 43.931-70.958 46.114-48.262 3.357-90.515-33.674-93.872-81.635-1.645-23.434 5.959-46.097 21.37-63.824 15.427-17.744 36.814-28.387 60.248-30.015 2.082-0.151 4.146-0.235 6.194-0.235 0 0 0 0 0.017 0 2.098 0 4.163 0.319 6.245 0.453l-36.176-66.056c-10.022 4.835-20.782 7.907-31.895 8.679-48.481 3.055-90.565-33.708-93.906-81.651-2.317-33.171 14-63.924 41.531-80.846l-23.317-42.588zM661.806 326.396c-8.158-4.633-17.29-7.084-26.641-7.084-0.017 0-0.017 0-0.017 0-1.259 0-2.535 0.050-3.844 0.151-14.487 1.007-27.715 7.588-37.267 18.55-9.535 10.945-14.235 24.962-13.211 39.449 1.981 28.387 25.801 50.612 54.205 50.612 1.276 0 2.552-0.034 3.844-0.134 27.547-1.93 49.018-24.123 50.445-51.334l-27.514-50.21zM512.923 144.829c1.964 28.37 25.785 50.629 54.205 50.629 1.276 0 2.568-0.050 3.878-0.151 5.187-0.353 10.29-1.477 15.142-3.29l-51.754-94.393c-14.47 10.844-22.78 28.42-21.47 47.205zM873.925 713.552c-100.117 60.231-205.757 94.661-314.972 102.081-1.796 0.118-3.609 0.084-5.405 0.201-13.346 0.789-26.691 1.46-40.137 1.46-0.336 0-0.638-0.034-0.974-0.034-0.201 0-0.403 0.017-0.604 0.017-13.278 0-26.221-0.487-39.013-1.209-0.739-0.034-1.444-0.118-2.182-0.168-164.696-9.871-287.19-75.944-329.728-102.165l-35.185 68.339c128.957 84.656 264.377 127.564 402.717 127.564 206.966 0 361.539-97.381 403.456-126.758l-37.972-69.33zM488.146 595.288c47.91 0 86.872 38.962 86.872 86.872s-38.962 86.872-86.872 86.872-86.889-38.979-86.889-86.872 38.979-86.872 86.889-86.872zM488.146 735.475c29.377 0 53.298-23.905 53.298-53.298 0-29.377-23.905-53.298-53.298-53.298s-53.315 23.905-53.315 53.298c0 29.377 23.921 53.298 53.315 53.298zM691.351 513.301c48.514 0 87.963 39.449 87.963 87.946 0 48.514-39.466 87.963-87.963 87.963s-87.93-39.466-87.93-87.963c-0.017-48.497 39.432-87.946 87.93-87.946zM691.351 655.654c29.998 0 54.39-24.408 54.39-54.39s-24.391-54.373-54.39-54.373c-29.965 0-54.356 24.391-54.356 54.373-0.017 29.981 24.375 54.39 54.356 54.39zM536.173 473.231c0 48.514-39.466 87.98-87.98 87.98s-87.963-39.466-87.963-87.98 39.466-87.98 87.963-87.98 87.98 39.466 87.98 87.98zM448.193 418.824c-29.998 0-54.39 24.408-54.39 54.406s24.408 54.406 54.39 54.406c29.998 0 54.406-24.408 54.406-54.406s-24.408-54.406-54.406-54.406z" />
<glyph unicode="&#xf005;" glyph-name="star" horiz-adv-x="951" d="M950.857 581.143q0-12.571-14.857-27.429l-207.429-202.286 49.143-285.714q0.571-4 0.571-11.429 0-12-6-20.286t-17.429-8.286q-10.857 0-22.857 6.857l-256.571 134.857-256.571-134.857q-12.571-6.857-22.857-6.857-12 0-18 8.286t-6 20.286q0 3.429 1.143 11.429l49.143 285.714-208 202.286q-14.286 15.429-14.286 27.429 0 21.143 32 26.286l286.857 41.714 128.571 260q10.857 23.429 28 23.429t28-23.429l128.571-260 286.857-41.714q32-5.143 32-26.286z" />
<glyph unicode="&#xf006;" glyph-name="star-empty" horiz-adv-x="951" d="M649.714 377.143l174.857 169.714-241.143 35.429-108 218.286-108-218.286-241.143-35.429 174.857-169.714-41.714-240.571 216 113.714 215.429-113.714zM950.857 581.143q0-12.571-14.857-27.429l-207.429-202.286 49.143-285.714q0.571-4 0.571-11.429 0-28.571-23.429-28.571-10.857 0-22.857 6.857l-256.571 134.857-256.571-134.857q-12.571-6.857-22.857-6.857-12 0-18 8.286t-6 20.286q0 3.429 1.143 11.429l49.143 285.714-208 202.286q-14.286 15.429-14.286 27.429 0 21.143 32 26.286l286.857 41.714 128.571 260q10.857 23.429 28 23.429t28-23.429l128.571-260 286.857-41.714q32-5.143 32-26.286z" />
<glyph unicode="&#xf099;" glyph-name="twitter" horiz-adv-x="951" d="M925.714 717.714q-38.286-56-92.571-95.429 0.571-8 0.571-24 0-74.286-21.714-148.286t-66-142-105.429-120.286-147.429-83.429-184.571-31.143q-154.857 0-283.429 82.857 20-2.286 44.571-2.286 128.571 0 229.143 78.857-60 1.143-107.429 36.857t-65.143 91.143q18.857-2.857 34.857-2.857 24.571 0 48.571 6.286-64 13.143-106 63.714t-42 117.429v2.286q38.857-21.714 83.429-23.429-37.714 25.143-60 65.714t-22.286 88q0 50.286 25.143 93.143 69.143-85.143 168.286-136.286t212.286-56.857q-4.571 21.714-4.571 42.286 0 76.571 54 130.571t130.571 54q80 0 134.857-58.286 62.286 12 117.143 44.571-21.143-65.714-81.143-101.714 53.143 5.714 106.286 28.571z" />
<glyph unicode="&#xf09a;" glyph-name="facebook" horiz-adv-x="602" d="M548 944v-150.857h-89.714q-49.143 0-66.286-20.571t-17.143-61.714v-108h167.429l-22.286-169.143h-145.143v-433.714h-174.857v433.714h-145.714v169.143h145.714v124.571q0 106.286 59.429 164.857t158.286 58.571q84 0 130.286-6.857z" />
<glyph unicode="&#xf0d7;" glyph-name="caret-down" horiz-adv-x="585" d="M585.143 548.571q0-14.857-10.857-25.714l-256-256q-10.857-10.857-25.714-10.857t-25.714 10.857l-256 256q-10.857 10.857-10.857 25.714t10.857 25.714 25.714 10.857h512q14.857 0 25.714-10.857t10.857-25.714z" />
<glyph unicode="&#xf0d8;" glyph-name="caret-up" horiz-adv-x="585" d="M585.143 256q0-14.857-10.857-25.714t-25.714-10.857h-512q-14.857 0-25.714 10.857t-10.857 25.714 10.857 25.714l256 256q10.857 10.857 25.714 10.857t25.714-10.857l256-256q10.857-10.857 10.857-25.714z" />
<glyph unicode="&#xf0e0;" glyph-name="envelope" d="M1024 545.143v-453.714q0-37.714-26.857-64.571t-64.571-26.857h-841.143q-37.714 0-64.571 26.857t-26.857 64.571v453.714q25.143-28 57.714-49.714 206.857-140.571 284-197.143 32.571-24 52.857-37.429t54-27.429 62.857-14h1.143q29.143 0 62.857 14t54 27.429 52.857 37.429q97.143 70.286 284.571 197.143 32.571 22.286 57.143 49.714zM1024 713.143q0-45.143-28-86.286t-69.714-70.286q-214.857-149.143-267.429-185.714-5.714-4-24.286-17.429t-30.857-21.714-29.714-18.571-32.857-15.429-28.571-5.143h-1.143q-13.143 0-28.571 5.143t-32.857 15.429-29.714 18.571-30.857 21.714-24.286 17.429q-52 36.571-149.714 104.286t-117.143 81.429q-35.429 24-66.857 66t-31.429 78q0 44.571 23.714 74.286t67.714 29.714h841.143q37.143 0 64.286-26.857t27.143-64.571z" />
<glyph unicode="&#xf123;" glyph-name="star-half-empty" horiz-adv-x="951" d="M677.714 404l146.857 142.857-241.143 35.429-17.143 34.286-90.857 184v-550.286l33.714-17.714 181.714-96-34.286 202.857-6.857 37.714zM936 553.714l-207.429-202.286 49.143-285.714q2.857-18.857-3.429-29.429t-19.429-10.571q-9.714 0-22.857 6.857l-256.571 134.857-256.571-134.857q-13.143-6.857-22.857-6.857-13.143 0-19.429 10.571t-3.429 29.429l49.143 285.714-208 202.286q-18.286 18.286-13.143 34t30.857 19.714l286.857 41.714 128.571 260q11.429 23.429 28 23.429 16 0 28-23.429l128.571-260 286.857-41.714q25.714-4 30.857-19.714t-13.714-34z" />
<glyph unicode="&#xf16d;" glyph-name="instagram" horiz-adv-x="878" d="M778.286 136v370.286h-77.143q11.429-36 11.429-74.857 0-72-36.571-132.857t-99.429-96.286-137.143-35.429q-112.571 0-192.571 77.429t-80 187.143q0 38.857 11.429 74.857h-80.571v-370.286q0-14.857 10-24.857t24.857-10h610.857q14.286 0 24.571 10t10.286 24.857zM616 440.571q0 70.857-51.714 120.857t-124.857 50q-72.571 0-124.286-50t-51.714-120.857 51.714-120.857 124.286-50q73.143 0 124.857 50t51.714 120.857zM778.286 646.286v94.286q0 16-11.429 27.714t-28 11.714h-99.429q-16.571 0-28-11.714t-11.429-27.714v-94.286q0-16.571 11.429-28t28-11.429h99.429q16.571 0 28 11.429t11.429 28zM877.714 765.143v-652.571q0-46.286-33.143-79.429t-79.429-33.143h-652.571q-46.286 0-79.429 33.143t-33.143 79.429v652.571q0 46.286 33.143 79.429t79.429 33.143h652.571q46.286 0 79.429-33.143t33.143-79.429z" />
</font>
</defs>
</svg>
