<?xml version="1.0" encoding="utf-8"?>
<!-- Generator: Adobe Illustrator 16.0.4, SVG Export Plug-In . SVG Version: 6.00 Build 0)  -->
<!DOCTYPE svg PUBLIC "-//W3C//DTD SVG 1.1//EN" "http://www.w3.org/Graphics/SVG/1.1/DTD/svg11.dtd">
<svg version="1.1" id="Layer_1" xmlns="http://www.w3.org/2000/svg" xmlns:xlink="http://www.w3.org/1999/xlink" x="0px" y="0px"
	 width="300px" height="200px" viewBox="0 0 300 200" enable-background="new 0 0 300 200" xml:space="preserve">
<path fill="#96D3C1" d="M11.023,18.646v140.337l280.48,0.304c0,0,0-48.658,0-51.486c0-2.83-0.938-4.013-4.146-4.957
	c-3.207-0.942-26.756-7.87-26.756-7.87l-24.229-76.328H11.023z"/>
<rect x="34.447" y="50.553" fill="#D1ECF3" width="125.194" height="44.121"/>
<path fill="#2AA993" d="M168.188,98.457c0,2.091-1.017,3.787-2.273,3.787H29.425c-1.256,0-2.274-1.695-2.274-3.787l0,0
	c0-2.091,1.018-3.786,2.274-3.786h136.49C167.172,94.671,168.188,96.365,168.188,98.457L168.188,98.457z"/>
<path fill="#F6883D" d="M130.963,28.338h20.293c0,0,12.413,10.6,13.932,15.749c1.518,5.149,4.241,18.174-13.023,18.174
	s-21.202-14.236-21.202-14.236V28.338z"/>
<path fill="#F6883D" d="M63.339,28.186H43.045c0,0-12.414,10.6-13.932,15.749c-1.518,5.149-4.242,18.175,13.023,18.175
	s21.202-14.236,21.202-14.236V28.186z"/>
<polygon fill="#D1ECF3" points="188.212,32.276 188.212,87.009 244.853,87.009 230.616,32.276 "/>
<path fill="#2AA993" d="M11.023,120.416h280.48c0,0,0,38.164,0,40.586c0,3.231-0.814,4.847-4.654,4.847c-2.011,0-265.722,0-271.38,0
	c-3.032,0-4.446-1.733-4.446-4.545C11.023,155.452,11.023,120.416,11.023,120.416z"/>
<path fill="#2AA993" d="M240.611,16.073c0,2.091-1.696,3.786-3.787,3.786H9.659c-2.091,0-3.786-1.694-3.786-3.786l0,0
	c0-2.091,1.695-3.786,3.786-3.786h227.165C238.915,12.287,240.611,13.981,240.611,16.073L240.611,16.073z"/>
<path fill="#FFFFFF" d="M107.945,28.338h23.021c0,0,5.915,10.601,7.732,16.962c1.817,6.36,0.748,16.961-14.397,16.961
	c-15.144,0-19.082-14.539-19.082-14.539L107.945,28.338z"/>
<path fill="#FFFFFF" d="M86.357,28.186h-23.02c0,0-5.915,10.601-7.732,16.961c-1.818,6.361-0.749,16.962,14.396,16.962
	s19.082-14.539,19.082-14.539L86.357,28.186z"/>
<path fill="#F6883D" d="M86.745,28.338h21.203c0,0,13.975,33.923-10.277,33.923S86.745,28.338,86.745,28.338z"/>
<circle fill="#454545" cx="75.815" cy="164.637" r="25.241"/>
<circle fill="#C4C4C4" cx="75.952" cy="164.638" r="12.314"/>
<path fill="#717171" d="M75.953,147.523c-9.451,0-17.114,7.661-17.114,17.113c0,9.451,7.663,17.112,17.114,17.112
	c9.451,0,17.113-7.661,17.113-17.112C93.065,155.185,85.403,147.523,75.953,147.523z M75.953,179.25
	c-8.071,0-14.615-6.543-14.615-14.613s6.543-14.614,14.615-14.614c8.071,0,14.614,6.544,14.614,14.614S84.023,179.25,75.953,179.25z
	"/>
<circle fill="#454545" cx="229.671" cy="164.637" r="25.24"/>
<path fill="#C4C4C4" d="M242.122,164.638c0,6.801-5.512,12.313-12.315,12.313c-6.8,0-12.312-5.513-12.312-12.313
	s5.513-12.315,12.312-12.315C236.61,152.322,242.122,157.837,242.122,164.638z"/>
<path fill="#717171" d="M229.808,147.523c-9.45,0-17.112,7.661-17.112,17.113c0,9.451,7.662,17.112,17.112,17.112
	c9.452,0,17.113-7.661,17.113-17.112C246.921,155.185,239.26,147.523,229.808,147.523z M229.808,179.25
	c-8.069,0-14.613-6.543-14.613-14.613s6.544-14.614,14.613-14.614c8.071,0,14.615,6.544,14.615,14.614
	S237.879,179.25,229.808,179.25z"/>
<line fill="none" stroke="#FFFFFF" stroke-width="2" stroke-miterlimit="10" x1="202.263" y1="51.574" x2="222.995" y2="72.307"/>
<line fill="none" stroke="#FFFFFF" stroke-width="2" stroke-miterlimit="10" x1="212.004" y1="50.362" x2="222.995" y2="61.353"/>
<line fill="none" stroke="#FFFFFF" stroke-width="2" stroke-miterlimit="10" x1="200.425" y1="60.855" x2="211.416" y2="71.846"/>
</svg>
