<?xml version="1.0" encoding="utf-8"?>
<!-- Generator: Adobe Illustrator 16.0.4, SVG Export Plug-In . SVG Version: 6.00 Build 0)  -->
<!DOCTYPE svg PUBLIC "-//W3C//DTD SVG 1.1//EN" "http://www.w3.org/Graphics/SVG/1.1/DTD/svg11.dtd">
<svg version="1.1" id="Layer_1" xmlns="http://www.w3.org/2000/svg" xmlns:xlink="http://www.w3.org/1999/xlink" x="0px" y="0px"
	 width="250px" height="200px" viewBox="0 0 250 200" enable-background="new 0 0 250 200" xml:space="preserve">
<path fill="#DF902D" d="M30.871,120.92c-2.319,2.845-7.25,9.386-7.25,22.748c0,13.364,7.25,24.172,21.752,30.71
	c14.501,6.54,45.211,14.217,81.336,14.217c36.125,0,70.554-8.314,80.498-12.793c10.733-4.836,22.084-14.506,21.773-26.162
	c-0.31-11.658-0.602-17.628-11.621-28.72C206.338,109.83,30.871,120.92,30.871,120.92z"/>
<path fill="#7B2E24" d="M34.711,118.469c-3.128,4.834-4.55,11.09-2.844,15.925c1.706,4.833,6.256,10.235,15.923,15.354
	c9.668,5.118,42.627,16.207,79.321,16.207c36.695,0,74.514-13.932,80.199-17.629c5.688-3.697,10.522-8.529,11.376-11.09
	c0.852-2.559,2.788-9.785-2.275-15.069C211.348,116.881,34.711,118.469,34.711,118.469z"/>
<path fill="#FAB815" d="M19.641,103.398c-3.413,3.412-10.805,10.521-10.805,15.923c0,5.403,1.918-6.956,45.78,7.778
	c34.407,11.559,53.458,15.256,67.959,30.041c23.887-19.619,78.193-29.25,93.107-31.421c14.662-2.131,30.581,3.803,26.488-3.566
	c0,0-9.877-14.586-17.29-19.135c-7.413-4.55-108.276,21.991-108.276,21.991L25.897,99.134L19.641,103.398z"/>
<path fill="#DA2228" d="M29.877,93.731c0.284,4.891-1.137,15.092,7.108,20.758c5.96,4.095,24,9.929,44.075,12.61
	c20.075,2.685,44.075,1.823,52.036-2.624c7.962-4.448,7.962-13.346,7.962-13.346S86.748,122.693,29.877,93.731"/>
<path fill="#DA2228" d="M113.565,109.087c1.828,4.547,2.471,17.259,13.35,20.07c7,1.812,25.912,4.047,45.796,0.198
	c19.885-3.851,42.36-12.307,48.493-19.061c6.129-6.752,3.949-21.113,3.949-21.113S176.698,118.431,113.565,109.087"/>
<path fill="#92C740" d="M24.191,76.386c-3.603-0.946-7.583,1.137-6.541,9.1c1.042,7.963,2.925-2.275,4.59,0
	c1.666,2.275,3.17,13.459-2.748,13.08c-5.917-0.379,8.236,6.272,14.366,0c6.13-6.273,10.615,8.41,8.151,15.71
	c-2.464,7.298,12.796-5.12,11.943-8.247c-0.853-3.128,2.369,7.607,6.919,7.607c4.549,0,9.952-3.98,9.952-3.98
	s8.53,5.117,4.549,9.099c-3.981,3.98,11.375-1.421,11.375-5.402s3.466,11.767,12.849,13.188c4.59-0.107-5.836-7.121,0.23-11.197
	c3.558-2.39,14.029,3.317,11.659,9.667c-2.37,6.352,7.677-4.267,6.825-9.667c-0.854-5.403,3.127,5.463,11.121,5.463
	c6.224,0,7.931-6.033,7.931-6.033c-0.759,8.057,12.522,17.359,10.521,10.522c-2-6.838-1.422-9.952,0-11.09
	c1.421-1.137,11.656-2.371,15.924,5.971c4.264,8.342,9.952-2.559,10.234-4.833c0.286-2.274,3.129,3.98,6.258,3.98
	c3.127,0-4.162-7.324,5.686-9.1c5.782-1.041,10.145,1.613,7.299,6.352c-2.844,4.739,12.891,0.568,12.323-7.774
	c-0.394-5.742,4.928-1.517,5.117,3.129s7.582-5.212,4.834-14.218c-1.421-4.453,2.437,5.21,9.322,5.875
	c6.885,0.666,12.082-5.106,7.455-6.348c-7.772-2.085-3.572-8.91-3.572-8.91s5.277-0.188,7.362,2.086
	c2.085,2.274-1.172-13.111-9.021-11.674c-7.78,9.034-24.661,26.418-98.558,26.418C54.652,105.16,35.185,89.465,24.191,76.386z"/>
<path fill="#DF902D" d="M123.713,7.574c34.123,0,62.937,9.479,86.443,31.089c23.505,21.611,25.402,44.359,1.896,53.458
	c-23.506,9.099-47.771,15.544-85.495,15.544c-37.723,0-53.543-3.442-76.395-10.804c-26.485-8.532-38.558-24.281-16.303-52.509
	C49.403,24.635,82.767,7.574,123.713,7.574z"/>
<path fill="#F8CC64" d="M104.37,56.93c0,0,1.471,11.185,6.54,8.53C116.882,62.332,104.37,56.93,104.37,56.93z"/>
<path fill="#F8CC64" d="M119.221,22.717c0,0,9.279-6.419,4.601-9.715C118.312,9.119,119.221,22.717,119.221,22.717z"/>
<path fill="#F8CC64" d="M162.909,50.617c0,0-0.078,11.282,5.308,9.349C174.561,57.688,162.909,50.617,162.909,50.617z"/>
<path fill="#F8CC64" d="M85.638,29.338c0,0-0.156-11.282-5.5-9.237C73.842,22.512,85.638,29.338,85.638,29.338z"/>
<path fill="#F8CC64" d="M91.983,49.13c0,0-11.19-1.439-9.92,4.141C83.56,59.843,91.983,49.13,91.983,49.13z"/>
<path fill="#F8CC64" d="M175.589,29.924c0,0,11.081-2.117,8.136-7.024C180.257,17.12,175.589,29.924,175.589,29.924z"/>
<path fill="#F8CC64" d="M137.782,12.691c0,0,4.535,10.332,8.661,6.367C151.304,14.389,137.782,12.691,137.782,12.691z"/>
<path fill="#F8CC64" d="M144.441,61.974c0,0-1.966-11.11-6.913-8.232C131.704,57.131,144.441,61.974,144.441,61.974z"/>
<path fill="#F8CC64" d="M211.945,47.529c0,0-10.681,3.635-7.085,8.086C209.098,60.858,211.945,47.529,211.945,47.529z"/>
<path fill="#F8CC64" d="M97.627,19.506c0,0,11.282,0.073,9.346-5.312C104.691,7.852,97.627,19.506,97.627,19.506z"/>
<path fill="#F8CC64" d="M63.088,39.939c0,0,8.763-7.107,3.848-10.038C61.145,26.451,63.088,39.939,63.088,39.939z"/>
<path fill="#F8CC64" d="M118.345,79.512c0,0,11.105,1.99,10.112-3.646C127.286,69.228,118.345,79.512,118.345,79.512z"/>
<path fill="#F8CC64" d="M126.304,42.869c0,0-11.151-1.718-10.021,3.891C117.615,53.369,126.304,42.869,126.304,42.869z"/>
<path fill="#F8CC64" d="M185.545,60.189c0,0-0.079,11.282,5.307,9.349C197.198,67.26,185.545,60.189,185.545,60.189z"/>
<path fill="#F8CC64" d="M64.148,53.32c0,0-11.055,2.255-8.049,7.125C59.639,66.181,64.148,53.32,64.148,53.32z"/>
<path fill="#F8CC64" d="M85.451,67.771c0,0-9.437,6.184-4.844,9.597C86.02,81.387,85.451,67.771,85.451,67.771z"/>
<path fill="#F8CC64" d="M183.031,39.179c0,0,5.12,10.053,9.012,5.858C196.627,40.096,183.031,39.179,183.031,39.179z"/>
<path fill="#F8CC64" d="M138.846,31.739c0,0,0.534,11.271,5.806,9.045C150.864,38.165,138.846,31.739,138.846,31.739z"/>
<path fill="#F8CC64" d="M164.566,78.835c0,0-6.888-8.935-9.939-4.094C151.034,80.445,164.566,78.835,164.566,78.835z"/>
<path fill="#F8CC64" d="M165.704,21.009c0,0-10.681,3.635-7.085,8.085C162.856,34.337,165.704,21.009,165.704,21.009z"/>
<path fill="#F8CC64" d="M100.534,39.353c0,0,10.59-3.893,6.886-8.254C103.057,25.959,100.534,39.353,100.534,39.353z"/>
<path fill="#F8CC64" d="M39.826,49.862c0,0,11.186-1.478,8.527-6.546C45.22,37.346,39.826,49.862,39.826,49.862z"/>
<path fill="#DF902D" d="M30.871,120.92c-2.319,2.845-7.25,9.386-7.25,22.748c0,13.364,7.25,24.172,21.752,30.71
	c14.501,6.54,45.211,14.217,81.336,14.217c36.125,0,70.554-8.314,80.498-12.793c10.733-4.836,22.084-14.506,21.773-26.162
	c-0.31-11.658-0.602-17.628-11.621-28.72C206.338,109.83,30.871,120.92,30.871,120.92z"/>
<path fill="#7B2E24" d="M34.711,118.469c-3.128,4.834-4.55,11.09-2.844,15.925c1.706,4.833,6.256,10.235,15.923,15.354
	c9.668,5.118,42.627,16.207,79.321,16.207c36.695,0,74.514-13.932,80.199-17.629c5.688-3.697,10.522-8.529,11.376-11.09
	c0.852-2.559,2.788-9.785-2.275-15.069C211.348,116.881,34.711,118.469,34.711,118.469z"/>
<path fill="#FAB815" d="M19.641,103.398c-3.413,3.412-10.805,10.521-10.805,15.923c0,5.403,1.918-6.956,45.78,7.778
	c34.407,11.559,53.458,15.256,67.959,30.041c23.887-19.619,78.193-29.25,93.107-31.421c14.662-2.131,30.581,3.803,26.488-3.566
	c0,0-9.877-14.586-17.29-19.135c-7.413-4.55-108.276,21.991-108.276,21.991L25.897,99.134L19.641,103.398z"/>
<path fill="#DA2228" d="M29.877,93.731c0.284,4.891-1.137,15.092,7.108,20.758c5.96,4.095,24,9.929,44.075,12.61
	c20.075,2.685,44.075,1.823,52.036-2.624c7.962-4.448,7.962-13.346,7.962-13.346S86.748,122.693,29.877,93.731"/>
<path fill="#DA2228" d="M113.565,109.087c1.828,4.547,2.471,17.259,13.35,20.07c7,1.812,25.912,4.047,45.796,0.198
	c19.885-3.851,42.36-12.307,48.493-19.061c6.129-6.752,3.949-21.113,3.949-21.113S176.698,118.431,113.565,109.087"/>
<path fill="#92C740" d="M24.191,76.386c-3.603-0.946-7.583,1.137-6.541,9.1c1.042,7.963,2.925-2.275,4.59,0
	c1.666,2.275,3.17,13.459-2.748,13.08c-5.917-0.379,8.236,6.272,14.366,0c6.13-6.273,10.615,8.41,8.151,15.71
	c-2.464,7.298,12.796-5.12,11.943-8.247c-0.853-3.128,2.369,7.607,6.919,7.607c4.549,0,9.952-3.98,9.952-3.98
	s8.53,5.117,4.549,9.099c-3.981,3.98,11.375-1.421,11.375-5.402s3.466,11.767,12.849,13.188c4.59-0.107-5.836-7.121,0.23-11.197
	c3.558-2.39,14.029,3.317,11.659,9.667c-2.37,6.352,7.677-4.267,6.825-9.667c-0.854-5.403,3.127,5.463,11.121,5.463
	c6.224,0,7.931-6.033,7.931-6.033c-0.759,8.057,12.522,17.359,10.521,10.522c-2-6.838-1.422-9.952,0-11.09
	c1.421-1.137,11.656-2.371,15.924,5.971c4.264,8.342,9.952-2.559,10.234-4.833c0.286-2.274,3.129,3.98,6.258,3.98
	c3.127,0-4.162-7.324,5.686-9.1c5.782-1.041,10.145,1.613,7.299,6.352c-2.844,4.739,12.891,0.568,12.323-7.774
	c-0.394-5.742,4.928-1.517,5.117,3.129s7.582-5.212,4.834-14.218c-1.421-4.453,2.437,5.21,9.322,5.875
	c6.885,0.666,12.082-5.106,7.455-6.348c-7.772-2.085-3.572-8.91-3.572-8.91s5.277-0.188,7.362,2.086
	c2.085,2.274-1.172-13.111-9.021-11.674c-7.78,9.034-24.661,26.418-98.558,26.418C54.652,105.16,35.185,89.465,24.191,76.386z"/>
<path fill="#DF902D" d="M123.713,7.574c34.123,0,62.937,9.479,86.443,31.089c23.505,21.611,25.402,44.359,1.896,53.458
	c-23.506,9.099-47.771,15.544-85.495,15.544c-37.723,0-53.543-3.442-76.395-10.804c-26.485-8.532-38.558-24.281-16.303-52.509
	C49.403,24.635,82.767,7.574,123.713,7.574z"/>
<path fill="#F8CC64" d="M104.37,56.93c0,0,1.471,11.185,6.54,8.53C116.882,62.332,104.37,56.93,104.37,56.93z"/>
<path fill="#F8CC64" d="M119.221,22.717c0,0,9.279-6.419,4.601-9.715C118.312,9.119,119.221,22.717,119.221,22.717z"/>
<path fill="#F8CC64" d="M162.909,50.617c0,0-0.078,11.282,5.308,9.349C174.561,57.688,162.909,50.617,162.909,50.617z"/>
<path fill="#F8CC64" d="M85.638,29.338c0,0-0.156-11.282-5.5-9.237C73.842,22.512,85.638,29.338,85.638,29.338z"/>
<path fill="#F8CC64" d="M91.983,49.13c0,0-11.19-1.439-9.92,4.141C83.56,59.843,91.983,49.13,91.983,49.13z"/>
<path fill="#F8CC64" d="M175.589,29.924c0,0,11.081-2.117,8.136-7.024C180.257,17.12,175.589,29.924,175.589,29.924z"/>
<path fill="#F8CC64" d="M137.782,12.691c0,0,4.535,10.332,8.661,6.367C151.304,14.389,137.782,12.691,137.782,12.691z"/>
<path fill="#F8CC64" d="M144.441,61.974c0,0-1.966-11.11-6.913-8.232C131.704,57.131,144.441,61.974,144.441,61.974z"/>
<path fill="#F8CC64" d="M211.945,47.529c0,0-10.681,3.635-7.085,8.086C209.098,60.858,211.945,47.529,211.945,47.529z"/>
<path fill="#F8CC64" d="M97.627,19.506c0,0,11.282,0.073,9.346-5.312C104.691,7.852,97.627,19.506,97.627,19.506z"/>
<path fill="#F8CC64" d="M63.088,39.939c0,0,8.763-7.107,3.848-10.038C61.145,26.451,63.088,39.939,63.088,39.939z"/>
<path fill="#F8CC64" d="M118.345,79.512c0,0,11.105,1.99,10.112-3.646C127.286,69.228,118.345,79.512,118.345,79.512z"/>
<path fill="#F8CC64" d="M126.304,42.869c0,0-11.151-1.718-10.021,3.891C117.615,53.369,126.304,42.869,126.304,42.869z"/>
<path fill="#F8CC64" d="M185.545,60.189c0,0-0.079,11.282,5.307,9.349C197.198,67.26,185.545,60.189,185.545,60.189z"/>
<path fill="#F8CC64" d="M64.148,53.32c0,0-11.055,2.255-8.049,7.125C59.639,66.181,64.148,53.32,64.148,53.32z"/>
<path fill="#F8CC64" d="M85.451,67.771c0,0-9.437,6.184-4.844,9.597C86.02,81.387,85.451,67.771,85.451,67.771z"/>
<path fill="#F8CC64" d="M183.031,39.179c0,0,5.12,10.053,9.012,5.858C196.627,40.096,183.031,39.179,183.031,39.179z"/>
<path fill="#F8CC64" d="M138.846,31.739c0,0,0.534,11.271,5.806,9.045C150.864,38.165,138.846,31.739,138.846,31.739z"/>
<path fill="#F8CC64" d="M164.566,78.835c0,0-6.888-8.935-9.939-4.094C151.034,80.445,164.566,78.835,164.566,78.835z"/>
<path fill="#F8CC64" d="M165.704,21.009c0,0-10.681,3.635-7.085,8.085C162.856,34.337,165.704,21.009,165.704,21.009z"/>
<path fill="#F8CC64" d="M100.534,39.353c0,0,10.59-3.893,6.886-8.254C103.057,25.959,100.534,39.353,100.534,39.353z"/>
<path fill="#F8CC64" d="M39.826,49.862c0,0,11.186-1.478,8.527-6.546C45.22,37.346,39.826,49.862,39.826,49.862z"/>
</svg>
